<?xml version="1.0" encoding="UTF-8"?>

<!DOCTYPE svg PUBLIC '-//W3C//DTD SVG 1.0//EN' 'http://www.w3.org/TR/2001/REC-SVG-20010904/DTD/svg10.dtd'>
<svg fill-opacity="1" xmlns:xlink="http://www.w3.org/1999/xlink" color-rendering="auto" color-interpolation="auto" text-rendering="auto" stroke="black" stroke-linecap="square" width="1158" stroke-miterlimit="10" shape-rendering="auto" stroke-opacity="1" fill="black" stroke-dasharray="none" font-weight="normal" stroke-width="1" height="362" xmlns="http://www.w3.org/2000/svg" font-family="&apos;Dialog&apos;" font-style="normal" stroke-linejoin="miter" font-size="12" stroke-dashoffset="0" image-rendering="auto">
  <!--Generated by the Batik Graphics2D SVG Generator-->
  <defs id="genericDefs" />
  <g>
    <defs id="defs1">
      <clipPath clipPathUnits="userSpaceOnUse" id="clipPath1">
        <path d="M0 12.5 L0 344.8333 C0 351.7369 5.5964 357.3333 12.5 357.3333 L1140.875 357.3333 C1147.7786 357.3333 1153.375 351.7369 1153.375 344.8333 L1153.375 12.5 C1153.375 5.5964 1147.7786 0 1140.875 0 L12.5 0 C5.5964 0 0 5.5964 0 12.5 Z" />
      </clipPath>
      <clipPath clipPathUnits="userSpaceOnUse" id="clipPath2">
        <path d="M6 2 L195.694 2 L195.694 18 L6 18 L6 2 Z" />
      </clipPath>
      <clipPath clipPathUnits="userSpaceOnUse" id="clipPath3">
        <path d="M-0 0 L189 0 L189 16 L-0 16 L-0 0 Z" />
      </clipPath>
      <clipPath clipPathUnits="userSpaceOnUse" id="clipPath4">
        <path d="M20 0 L1129.375 0 L1109.375 307.3333 L0 307.3333 Z" />
      </clipPath>
      <clipPath clipPathUnits="userSpaceOnUse" id="clipPath5">
        <path d="M6 2 L47.4974 2 L47.4974 18 L6 18 L6 2 Z" />
      </clipPath>
      <clipPath clipPathUnits="userSpaceOnUse" id="clipPath6">
        <path d="M-0 0 L41 0 L41 16 L-0 16 L-0 0 Z" />
      </clipPath>
      <clipPath clipPathUnits="userSpaceOnUse" id="clipPath7">
        <path d="M20 0 L350.2578 0 L330.2578 110 L0 110 Z" />
      </clipPath>
      <clipPath clipPathUnits="userSpaceOnUse" id="clipPath8">
        <path d="M6 2 L112.7318 2 L112.7318 18 L6 18 L6 2 Z" />
      </clipPath>
      <clipPath clipPathUnits="userSpaceOnUse" id="clipPath9">
        <path d="M-0 -0 L106 -0 L106 16 L-0 16 L-0 -0 Z" />
      </clipPath>
      <clipPath clipPathUnits="userSpaceOnUse" id="clipPath10">
        <path d="M0 0 L20 8 L0 16 Z" />
      </clipPath>
      <clipPath clipPathUnits="userSpaceOnUse" id="clipPath11">
        <path d="M6 2 L81.5794 2 L81.5794 18 L6 18 L6 2 Z" />
      </clipPath>
      <clipPath clipPathUnits="userSpaceOnUse" id="clipPath12">
        <path d="M0 -0 L75 -0 L75 16 L0 16 L0 -0 Z" />
      </clipPath>
      <clipPath clipPathUnits="userSpaceOnUse" id="clipPath13">
        <path d="M6 2 L89.763 2 L89.763 18 L6 18 L6 2 Z" />
      </clipPath>
      <clipPath clipPathUnits="userSpaceOnUse" id="clipPath14">
        <path d="M0 0 L83 0 L83 16 L0 16 L0 0 Z" />
      </clipPath>
      <clipPath clipPathUnits="userSpaceOnUse" id="clipPath15">
        <path d="M20 4 L8 8 L20 12 Z" />
      </clipPath>
      <clipPath clipPathUnits="userSpaceOnUse" id="clipPath16">
        <path d="M6 2 L54.1771 2 L54.1771 18 L6 18 L6 2 Z" />
      </clipPath>
      <clipPath clipPathUnits="userSpaceOnUse" id="clipPath17">
        <path d="M0 -0 L48 -0 L48 16 L0 16 L0 -0 Z" />
      </clipPath>
      <clipPath clipPathUnits="userSpaceOnUse" id="clipPath18">
        <path d="M20 0 L193.0963 0 L173.0963 110 L0 110 Z" />
      </clipPath>
      <clipPath clipPathUnits="userSpaceOnUse" id="clipPath19">
        <path d="M6 2 L29.724 2 L29.724 18 L6 18 L6 2 Z" />
      </clipPath>
      <clipPath clipPathUnits="userSpaceOnUse" id="clipPath20">
        <path d="M-0 0 L23 0 L23 16 L-0 16 L-0 0 Z" />
      </clipPath>
      <clipPath clipPathUnits="userSpaceOnUse" id="clipPath21">
        <path d="M6 2 L46.7617 2 L46.7617 18 L6 18 L6 2 Z" />
      </clipPath>
      <clipPath clipPathUnits="userSpaceOnUse" id="clipPath22">
        <path d="M-0 0 L40 0 L40 16 L-0 16 L-0 0 Z" />
      </clipPath>
      <clipPath clipPathUnits="userSpaceOnUse" id="clipPath23">
        <path d="M0 4 L12 8 L0 12 Z" />
      </clipPath>
      <clipPath clipPathUnits="userSpaceOnUse" id="clipPath24">
        <path d="M6 2 L52.6862 2 L52.6862 18 L6 18 L6 2 Z" />
      </clipPath>
      <clipPath clipPathUnits="userSpaceOnUse" id="clipPath25">
        <path d="M0 0 L46 0 L46 16 L0 16 L0 0 Z" />
      </clipPath>
      <clipPath clipPathUnits="userSpaceOnUse" id="clipPath26">
        <path d="M20 0 L347.5586 0 L327.5586 221.6667 L0 221.6667 Z" />
      </clipPath>
      <clipPath clipPathUnits="userSpaceOnUse" id="clipPath27">
        <path d="M6 2 L83.8125 2 L83.8125 18 L6 18 L6 2 Z" />
      </clipPath>
      <clipPath clipPathUnits="userSpaceOnUse" id="clipPath28">
        <path d="M-0 0 L77 0 L77 16 L-0 16 L-0 0 Z" />
      </clipPath>
      <clipPath clipPathUnits="userSpaceOnUse" id="clipPath29">
        <path d="M0 0 L48 0 L48 16 L0 16 L0 0 Z" />
      </clipPath>
      <clipPath clipPathUnits="userSpaceOnUse" id="clipPath30">
        <path d="M0 0 L40 0 L40 16 L0 16 L0 0 Z" />
      </clipPath>
      <clipPath clipPathUnits="userSpaceOnUse" id="clipPath31">
        <path d="M0 0 L75 0 L75 16 L0 16 L0 0 Z" />
      </clipPath>
      <clipPath clipPathUnits="userSpaceOnUse" id="clipPath32">
        <path d="M0 -0 L46 -0 L46 16 L0 16 L0 -0 Z" />
      </clipPath>
      <clipPath clipPathUnits="userSpaceOnUse" id="clipPath33">
        <path d="M0 35 L0 9 L6 0 L39 0 L45 9 L132.0326 9 L132.0326 35 Z" />
      </clipPath>
      <clipPath clipPathUnits="userSpaceOnUse" id="clipPath34">
        <path d="M6 2 L86.0326 2 L86.0326 18 L6 18 L6 2 Z" />
      </clipPath>
      <clipPath clipPathUnits="userSpaceOnUse" id="clipPath35">
        <path d="M-0 -0 L80 -0 L80 16 L-0 16 L-0 -0 Z" />
      </clipPath>
      <clipPath clipPathUnits="userSpaceOnUse" id="clipPath36">
        <path d="M20 0 L347.5586 0 L327.5586 110 L0 110 Z" />
      </clipPath>
      <clipPath clipPathUnits="userSpaceOnUse" id="clipPath37">
        <path d="M6 2 L83.0768 2 L83.0768 18 L6 18 L6 2 Z" />
      </clipPath>
      <clipPath clipPathUnits="userSpaceOnUse" id="clipPath38">
        <path d="M-0 -0 L77 -0 L77 16 L-0 16 L-0 -0 Z" />
      </clipPath>
      <clipPath clipPathUnits="userSpaceOnUse" id="clipPath39">
        <path d="M20 0 L0 8 L20 16 Z" />
      </clipPath>
      <clipPath clipPathUnits="userSpaceOnUse" id="clipPath40">
        <path d="M0 -0 L83 -0 L83 16 L0 16 L0 -0 Z" />
      </clipPath>
      <clipPath clipPathUnits="userSpaceOnUse" id="clipPath41">
        <path d="M0 -0 L80 -0 L80 16 L0 16 L0 -0 Z" />
      </clipPath>
    </defs>
    <g transform="matrix(1,0,0,1,2,2)" fill="white" text-rendering="geometricPrecision" color-rendering="optimizeQuality" image-rendering="optimizeQuality" stroke="white" color-interpolation="linearRGB">
      <rect x="0" y="0" clip-path="url(#clipPath1)" width="1153.375" rx="12.5" ry="12.5" height="357.3333" stroke="none" />
    </g>
    <g stroke-linecap="butt" transform="matrix(1,0,0,1,2,2)" text-rendering="geometricPrecision" color-rendering="optimizeQuality" image-rendering="optimizeQuality" color-interpolation="linearRGB" stroke-width="4">
      <rect x="0" y="0" clip-path="url(#clipPath1)" fill="none" width="1153.375" rx="12.5" ry="12.5" height="357.3333" />
    </g>
    <g transform="matrix(1,0,0,1,477.8405,5)" fill-opacity="0.8" fill="rgb(255,255,255)" text-rendering="geometricPrecision" image-rendering="optimizeQuality" color-rendering="optimizeQuality" stroke="rgb(255,255,255)" color-interpolation="linearRGB" stroke-opacity="0.8">
      <rect x="6" y="2" clip-path="url(#clipPath2)" width="189.694" height="16" stroke="none" />
    </g>
    <g font-size="13.3333" transform="matrix(1,0,0,1,483.8405,20) translate(0,-13)" fill-opacity="0" fill="rgb(0,0,0)" text-rendering="geometricPrecision" image-rendering="optimizeQuality" color-rendering="optimizeQuality" font-family="&apos;Arial&apos;" stroke="rgb(0,0,0)" color-interpolation="linearRGB" stroke-opacity="0">
      <rect x="0" y="0" clip-path="url(#clipPath3)" width="189" height="16" stroke="none" />
    </g>
    <g font-size="13.3333" transform="matrix(1,0,0,1,483.8405,20) translate(0,-13)" text-rendering="optimizeLegibility" image-rendering="optimizeQuality" color-rendering="optimizeQuality" font-family="&apos;Arial&apos;" color-interpolation="linearRGB">
      <text xml:space="preserve" x="0" y="13" clip-path="url(#clipPath3)" stroke="none">TempControlSoftwareSystem.s*</text>
    </g>
    <g transform="matrix(1,0,0,1,14,40)" fill="white" text-rendering="geometricPrecision" color-rendering="optimizeQuality" image-rendering="optimizeQuality" stroke="white" color-interpolation="linearRGB">
      <path d="M20 0 L1129.375 0 L1109.375 307.3333 L0 307.3333 Z" clip-path="url(#clipPath4)" stroke="none" />
    </g>
    <g stroke-linecap="butt" transform="matrix(1,0,0,1,14,40)" text-rendering="geometricPrecision" color-rendering="optimizeQuality" image-rendering="optimizeQuality" color-interpolation="linearRGB" stroke-width="4">
      <path fill="none" d="M20 0 L1129.375 0 L1109.375 307.3333 L0 307.3333 Z" clip-path="url(#clipPath4)" />
    </g>
    <g transform="matrix(1,0,0,1,551.9388,43)" fill-opacity="0.8" fill="rgb(255,255,255)" text-rendering="geometricPrecision" image-rendering="optimizeQuality" color-rendering="optimizeQuality" stroke="rgb(255,255,255)" color-interpolation="linearRGB" stroke-opacity="0.8">
      <rect x="6" y="2" clip-path="url(#clipPath5)" width="41.4974" height="16" stroke="none" />
    </g>
    <g font-size="13.3333" transform="matrix(1,0,0,1,557.9388,58) translate(0,-13)" fill-opacity="0" fill="rgb(0,0,0)" text-rendering="geometricPrecision" image-rendering="optimizeQuality" color-rendering="optimizeQuality" font-family="&apos;Arial&apos;" stroke="rgb(0,0,0)" color-interpolation="linearRGB" stroke-opacity="0">
      <rect x="0" y="0" clip-path="url(#clipPath6)" width="41" height="16" stroke="none" />
    </g>
    <g font-size="13.3333" transform="matrix(1,0,0,1,557.9388,58) translate(0,-13)" text-rendering="optimizeLegibility" image-rendering="optimizeQuality" color-rendering="optimizeQuality" font-family="&apos;Arial&apos;" color-interpolation="linearRGB">
      <text xml:space="preserve" x="0" y="13" clip-path="url(#clipPath6)" stroke="none">tcproc*</text>
    </g>
    <g transform="matrix(1,0,0,1,403.5586,214.3333)" fill="white" text-rendering="geometricPrecision" color-rendering="optimizeQuality" image-rendering="optimizeQuality" stroke="white" color-interpolation="linearRGB">
      <path d="M20 0 L350.2578 0 L330.2578 110 L0 110 Z" clip-path="url(#clipPath7)" stroke="none" />
    </g>
    <g stroke-linecap="butt" transform="matrix(1,0,0,1,403.5586,214.3333)" fill="rgb(96,96,96)" text-rendering="geometricPrecision" image-rendering="optimizeQuality" color-rendering="optimizeQuality" stroke-dasharray="6,2" stroke="rgb(96,96,96)" color-interpolation="linearRGB" stroke-width="4">
      <path fill="none" d="M20 0 L350.2578 0 L330.2578 110 L0 110 Z" clip-path="url(#clipPath7)" />
    </g>
    <g transform="matrix(1,0,0,1,519.3216,217.3333)" fill-opacity="0.8" fill="rgb(255,255,255)" text-rendering="geometricPrecision" image-rendering="optimizeQuality" color-rendering="optimizeQuality" stroke="rgb(255,255,255)" color-interpolation="linearRGB" stroke-opacity="0.8">
      <rect x="6" y="2" clip-path="url(#clipPath8)" width="106.7318" height="16" stroke="none" />
    </g>
    <g font-size="13.3333" transform="matrix(1,0,0,1,525.3216,232.3333) translate(0,-13)" fill-opacity="0" fill="rgb(0,0,0)" text-rendering="geometricPrecision" image-rendering="optimizeQuality" color-rendering="optimizeQuality" font-family="&apos;Arial&apos;" stroke="rgb(0,0,0)" color-interpolation="linearRGB" stroke-opacity="0">
      <rect x="0" y="0" clip-path="url(#clipPath9)" width="106" height="16" stroke="none" />
    </g>
    <g font-size="13.3333" transform="matrix(1,0,0,1,525.3216,232.3333) translate(0,-13)" fill="rgb(96,96,96)" text-rendering="optimizeLegibility" image-rendering="optimizeQuality" color-rendering="optimizeQuality" font-family="&apos;Arial&apos;" stroke="rgb(96,96,96)" color-interpolation="linearRGB">
      <text xml:space="preserve" x="0" y="13" clip-path="url(#clipPath9)" stroke="none">operatorInterface*</text>
    </g>
    <g text-rendering="geometricPrecision" transform="matrix(1,0,0,1,403.5586,248.3333)" color-interpolation="linearRGB" color-rendering="optimizeQuality" image-rendering="optimizeQuality">
      <path d="M0 0 L20 8 L0 16 Z" clip-path="url(#clipPath10)" stroke="none" />
    </g>
    <g stroke-linecap="butt" transform="matrix(1,0,0,1,403.5586,248.3333)" fill="rgb(96,96,96)" text-rendering="geometricPrecision" image-rendering="optimizeQuality" color-rendering="optimizeQuality" stroke="rgb(96,96,96)" color-interpolation="linearRGB" stroke-width="2">
      <path fill="none" d="M0 0 L20 8 L0 16 Z" clip-path="url(#clipPath10)" />
    </g>
    <g transform="matrix(1,0,0,1,403.5586,224.3333)" fill-opacity="0.8" fill="rgb(255,255,255)" text-rendering="geometricPrecision" image-rendering="optimizeQuality" color-rendering="optimizeQuality" stroke="rgb(255,255,255)" color-interpolation="linearRGB" stroke-opacity="0.8">
      <rect x="6" y="2" clip-path="url(#clipPath11)" width="75.5794" height="16" stroke="none" />
    </g>
    <g font-size="13.3333" transform="matrix(1,0,0,1,409.5586,239.3333) translate(0,-13)" fill-opacity="0" fill="rgb(0,0,0)" text-rendering="geometricPrecision" image-rendering="optimizeQuality" color-rendering="optimizeQuality" font-family="&apos;Arial&apos;" stroke="rgb(0,0,0)" color-interpolation="linearRGB" stroke-opacity="0">
      <rect x="0" y="0" clip-path="url(#clipPath12)" width="75" height="16" stroke="none" />
    </g>
    <g font-size="13.3333" transform="matrix(1,0,0,1,409.5586,239.3333) translate(0,-13)" fill="rgb(96,96,96)" text-rendering="optimizeLegibility" image-rendering="optimizeQuality" color-rendering="optimizeQuality" font-family="&apos;Arial&apos;" stroke="rgb(96,96,96)" color-interpolation="linearRGB">
      <text xml:space="preserve" x="0" y="13" clip-path="url(#clipPath12)" stroke="none">currentTemp</text>
    </g>
    <g stroke-linecap="butt" transform="matrix(1,0,0,1,403.5586,298.3333)" fill="rgb(96,96,96)" text-rendering="geometricPrecision" color-rendering="optimizeQuality" image-rendering="optimizeQuality" stroke="rgb(96,96,96)" color-interpolation="linearRGB">
      <path fill="none" d="M0 0 L20 8 L0 16" />
    </g>
    <g transform="matrix(1,0,0,1,403.5586,274.3333)" fill-opacity="0.8" fill="rgb(255,255,255)" text-rendering="geometricPrecision" image-rendering="optimizeQuality" color-rendering="optimizeQuality" stroke="rgb(255,255,255)" color-interpolation="linearRGB" stroke-opacity="0.8">
      <rect x="6" y="2" clip-path="url(#clipPath13)" width="83.763" height="16" stroke="none" />
    </g>
    <g font-size="13.3333" transform="matrix(1,0,0,1,409.5586,289.3333) translate(0,-13)" fill-opacity="0" fill="rgb(0,0,0)" text-rendering="geometricPrecision" image-rendering="optimizeQuality" color-rendering="optimizeQuality" font-family="&apos;Arial&apos;" stroke="rgb(0,0,0)" color-interpolation="linearRGB" stroke-opacity="0">
      <rect x="0" y="0" clip-path="url(#clipPath14)" width="83" height="16" stroke="none" />
    </g>
    <g font-size="13.3333" transform="matrix(1,0,0,1,409.5586,289.3333) translate(0,-13)" fill="rgb(96,96,96)" text-rendering="optimizeLegibility" image-rendering="optimizeQuality" color-rendering="optimizeQuality" font-family="&apos;Arial&apos;" stroke="rgb(96,96,96)" color-interpolation="linearRGB">
      <text xml:space="preserve" x="0" y="13" clip-path="url(#clipPath14)" stroke="none">tempChanged</text>
    </g>
    <g stroke-linecap="butt" transform="matrix(-1,0,0,-1,753.8164,289.3333)" fill="rgb(96,96,96)" text-rendering="geometricPrecision" color-rendering="optimizeQuality" image-rendering="optimizeQuality" stroke="rgb(96,96,96)" color-interpolation="linearRGB">
      <path fill="none" d="M20 0 L0 8 L20 16" />
    </g>
    <g text-rendering="geometricPrecision" transform="matrix(-1,0,0,-1,753.8164,289.3333)" color-interpolation="linearRGB" color-rendering="optimizeQuality" image-rendering="optimizeQuality">
      <path d="M20 4 L8 8 L20 12 Z" clip-path="url(#clipPath15)" stroke="none" />
    </g>
    <g stroke-linecap="butt" transform="matrix(-1,0,0,-1,753.8164,289.3333)" fill="rgb(96,96,96)" text-rendering="geometricPrecision" image-rendering="optimizeQuality" color-rendering="optimizeQuality" stroke="rgb(96,96,96)" color-interpolation="linearRGB" stroke-width="2">
      <path fill="none" d="M20 4 L8 8 L20 12 Z" clip-path="url(#clipPath15)" />
    </g>
    <g transform="matrix(1,0,0,1,693.6393,249.3333)" fill-opacity="0.8" fill="rgb(255,255,255)" text-rendering="geometricPrecision" image-rendering="optimizeQuality" color-rendering="optimizeQuality" stroke="rgb(255,255,255)" color-interpolation="linearRGB" stroke-opacity="0.8">
      <rect x="6" y="2" clip-path="url(#clipPath16)" width="48.1771" height="16" stroke="none" />
    </g>
    <g font-size="13.3333" transform="matrix(1,0,0,1,699.6393,264.3333) translate(0,-13)" fill-opacity="0" fill="rgb(0,0,0)" text-rendering="geometricPrecision" image-rendering="optimizeQuality" color-rendering="optimizeQuality" font-family="&apos;Arial&apos;" stroke="rgb(0,0,0)" color-interpolation="linearRGB" stroke-opacity="0">
      <rect x="0" y="0" clip-path="url(#clipPath17)" width="48" height="16" stroke="none" />
    </g>
    <g font-size="13.3333" transform="matrix(1,0,0,1,699.6393,264.3333) translate(0,-13)" fill="rgb(96,96,96)" text-rendering="optimizeLegibility" image-rendering="optimizeQuality" color-rendering="optimizeQuality" font-family="&apos;Arial&apos;" stroke="rgb(96,96,96)" color-interpolation="linearRGB">
      <text xml:space="preserve" x="0" y="13" clip-path="url(#clipPath17)" stroke="none">setPoint</text>
    </g>
    <g transform="matrix(1,0,0,1,560.7201,78)" fill="white" text-rendering="geometricPrecision" color-rendering="optimizeQuality" image-rendering="optimizeQuality" stroke="white" color-interpolation="linearRGB">
      <path d="M20 0 L193.0963 0 L173.0963 110 L0 110 Z" clip-path="url(#clipPath18)" stroke="none" />
    </g>
    <g stroke-linecap="butt" transform="matrix(1,0,0,1,560.7201,78)" fill="rgb(96,96,96)" text-rendering="geometricPrecision" image-rendering="optimizeQuality" color-rendering="optimizeQuality" stroke-dasharray="6,2" stroke="rgb(96,96,96)" color-interpolation="linearRGB" stroke-width="4">
      <path fill="none" d="M20 0 L193.0963 0 L173.0963 110 L0 110 Z" clip-path="url(#clipPath18)" />
    </g>
    <g transform="matrix(1,0,0,1,639.4063,81)" fill-opacity="0.8" fill="rgb(255,255,255)" text-rendering="geometricPrecision" image-rendering="optimizeQuality" color-rendering="optimizeQuality" stroke="rgb(255,255,255)" color-interpolation="linearRGB" stroke-opacity="0.8">
      <rect x="6" y="2" clip-path="url(#clipPath19)" width="23.724" height="16" stroke="none" />
    </g>
    <g font-size="13.3333" transform="matrix(1,0,0,1,645.4063,96) translate(0,-13)" fill-opacity="0" fill="rgb(0,0,0)" text-rendering="geometricPrecision" image-rendering="optimizeQuality" color-rendering="optimizeQuality" font-family="&apos;Arial&apos;" stroke="rgb(0,0,0)" color-interpolation="linearRGB" stroke-opacity="0">
      <rect x="0" y="0" clip-path="url(#clipPath20)" width="23" height="16" stroke="none" />
    </g>
    <g font-size="13.3333" transform="matrix(1,0,0,1,645.4063,96) translate(0,-13)" fill="rgb(96,96,96)" text-rendering="optimizeLegibility" image-rendering="optimizeQuality" color-rendering="optimizeQuality" font-family="&apos;Arial&apos;" stroke="rgb(96,96,96)" color-interpolation="linearRGB">
      <text xml:space="preserve" x="0" y="13" clip-path="url(#clipPath20)" stroke="none">fan*</text>
    </g>
    <g stroke-linecap="butt" transform="matrix(-1,0,0,-1,753.8164,178)" fill="rgb(96,96,96)" text-rendering="geometricPrecision" color-rendering="optimizeQuality" image-rendering="optimizeQuality" stroke="rgb(96,96,96)" color-interpolation="linearRGB">
      <path fill="none" d="M20 0 L0 8 L20 16" />
    </g>
    <g text-rendering="geometricPrecision" transform="matrix(-1,0,0,-1,753.8164,178)" color-interpolation="linearRGB" color-rendering="optimizeQuality" image-rendering="optimizeQuality">
      <path d="M20 4 L8 8 L20 12 Z" clip-path="url(#clipPath15)" stroke="none" />
    </g>
    <g stroke-linecap="butt" transform="matrix(-1,0,0,-1,753.8164,178)" fill="rgb(96,96,96)" text-rendering="geometricPrecision" image-rendering="optimizeQuality" color-rendering="optimizeQuality" stroke="rgb(96,96,96)" color-interpolation="linearRGB" stroke-width="2">
      <path fill="none" d="M20 4 L8 8 L20 12 Z" clip-path="url(#clipPath15)" />
    </g>
    <g transform="matrix(1,0,0,1,701.0547,138)" fill-opacity="0.8" fill="rgb(255,255,255)" text-rendering="geometricPrecision" image-rendering="optimizeQuality" color-rendering="optimizeQuality" stroke="rgb(255,255,255)" color-interpolation="linearRGB" stroke-opacity="0.8">
      <rect x="6" y="2" clip-path="url(#clipPath21)" width="40.7617" height="16" stroke="none" />
    </g>
    <g font-size="13.3333" transform="matrix(1,0,0,1,707.0547,153) translate(0,-13)" fill-opacity="0" fill="rgb(0,0,0)" text-rendering="geometricPrecision" image-rendering="optimizeQuality" color-rendering="optimizeQuality" font-family="&apos;Arial&apos;" stroke="rgb(0,0,0)" color-interpolation="linearRGB" stroke-opacity="0">
      <rect x="0" y="0" clip-path="url(#clipPath22)" width="40" height="16" stroke="none" />
    </g>
    <g font-size="13.3333" transform="matrix(1,0,0,1,707.0547,153) translate(0,-13)" fill="rgb(96,96,96)" text-rendering="optimizeLegibility" image-rendering="optimizeQuality" color-rendering="optimizeQuality" font-family="&apos;Arial&apos;" stroke="rgb(96,96,96)" color-interpolation="linearRGB">
      <text xml:space="preserve" x="0" y="13" clip-path="url(#clipPath22)" stroke="none">fanAck</text>
    </g>
    <g stroke-linecap="butt" transform="matrix(-1,0,0,-1,753.8164,128)" fill="rgb(96,96,96)" text-rendering="geometricPrecision" color-rendering="optimizeQuality" image-rendering="optimizeQuality" stroke="rgb(96,96,96)" color-interpolation="linearRGB">
      <path fill="none" d="M0 0 L20 8 L0 16" />
    </g>
    <g text-rendering="geometricPrecision" transform="matrix(-1,0,0,-1,753.8164,128)" color-interpolation="linearRGB" color-rendering="optimizeQuality" image-rendering="optimizeQuality">
      <path d="M0 4 L12 8 L0 12 Z" clip-path="url(#clipPath23)" stroke="none" />
    </g>
    <g stroke-linecap="butt" transform="matrix(-1,0,0,-1,753.8164,128)" fill="rgb(96,96,96)" text-rendering="geometricPrecision" image-rendering="optimizeQuality" color-rendering="optimizeQuality" stroke="rgb(96,96,96)" color-interpolation="linearRGB" stroke-width="2">
      <path fill="none" d="M0 4 L12 8 L0 12 Z" clip-path="url(#clipPath23)" />
    </g>
    <g transform="matrix(1,0,0,1,695.1302,88)" fill-opacity="0.8" fill="rgb(255,255,255)" text-rendering="geometricPrecision" image-rendering="optimizeQuality" color-rendering="optimizeQuality" stroke="rgb(255,255,255)" color-interpolation="linearRGB" stroke-opacity="0.8">
      <rect x="6" y="2" clip-path="url(#clipPath24)" width="46.6862" height="16" stroke="none" />
    </g>
    <g font-size="13.3333" transform="matrix(1,0,0,1,701.1302,103) translate(0,-13)" fill-opacity="0" fill="rgb(0,0,0)" text-rendering="geometricPrecision" image-rendering="optimizeQuality" color-rendering="optimizeQuality" font-family="&apos;Arial&apos;" stroke="rgb(0,0,0)" color-interpolation="linearRGB" stroke-opacity="0">
      <rect x="0" y="0" clip-path="url(#clipPath25)" width="46" height="16" stroke="none" />
    </g>
    <g font-size="13.3333" transform="matrix(1,0,0,1,701.1302,103) translate(0,-13)" fill="rgb(96,96,96)" text-rendering="optimizeLegibility" image-rendering="optimizeQuality" color-rendering="optimizeQuality" font-family="&apos;Arial&apos;" stroke="rgb(96,96,96)" color-interpolation="linearRGB">
      <text xml:space="preserve" x="0" y="13" clip-path="url(#clipPath25)" stroke="none">fanCmd</text>
    </g>
    <g transform="matrix(1,0,0,1,783.8164,86.3333)" fill="white" text-rendering="geometricPrecision" color-rendering="optimizeQuality" image-rendering="optimizeQuality" stroke="white" color-interpolation="linearRGB">
      <path d="M20 0 L347.5586 0 L327.5586 221.6667 L0 221.6667 Z" clip-path="url(#clipPath26)" stroke="none" />
    </g>
    <g stroke-linecap="butt" transform="matrix(1,0,0,1,783.8164,86.3333)" fill="rgb(96,96,96)" text-rendering="geometricPrecision" image-rendering="optimizeQuality" color-rendering="optimizeQuality" stroke-dasharray="6,2" stroke="rgb(96,96,96)" color-interpolation="linearRGB" stroke-width="4">
      <path fill="none" d="M20 0 L347.5586 0 L327.5586 221.6667 L0 221.6667 Z" clip-path="url(#clipPath26)" />
    </g>
    <g transform="matrix(1,0,0,1,912.6895,89.3333)" fill-opacity="0.8" fill="rgb(255,255,255)" text-rendering="geometricPrecision" image-rendering="optimizeQuality" color-rendering="optimizeQuality" stroke="rgb(255,255,255)" color-interpolation="linearRGB" stroke-opacity="0.8">
      <rect x="6" y="2" clip-path="url(#clipPath27)" width="77.8125" height="16" stroke="none" />
    </g>
    <g font-size="13.3333" transform="matrix(1,0,0,1,918.6895,104.3333) translate(0,-13)" fill-opacity="0" fill="rgb(0,0,0)" text-rendering="geometricPrecision" image-rendering="optimizeQuality" color-rendering="optimizeQuality" font-family="&apos;Arial&apos;" stroke="rgb(0,0,0)" color-interpolation="linearRGB" stroke-opacity="0">
      <rect x="0" y="0" clip-path="url(#clipPath28)" width="77" height="16" stroke="none" />
    </g>
    <g font-size="13.3333" transform="matrix(1,0,0,1,918.6895,104.3333) translate(0,-13)" fill="rgb(96,96,96)" text-rendering="optimizeLegibility" image-rendering="optimizeQuality" color-rendering="optimizeQuality" font-family="&apos;Arial&apos;" stroke="rgb(96,96,96)" color-interpolation="linearRGB">
      <text xml:space="preserve" x="0" y="13" clip-path="url(#clipPath28)" stroke="none">tempControl*</text>
    </g>
    <g stroke-linecap="butt" transform="matrix(1,0,0,1,783.8164,247)" fill="rgb(96,96,96)" text-rendering="geometricPrecision" color-rendering="optimizeQuality" image-rendering="optimizeQuality" stroke="rgb(96,96,96)" color-interpolation="linearRGB">
      <path fill="none" d="M0 0 L20 8 L0 16" />
    </g>
    <g text-rendering="geometricPrecision" transform="matrix(1,0,0,1,783.8164,247)" color-interpolation="linearRGB" color-rendering="optimizeQuality" image-rendering="optimizeQuality">
      <path d="M0 4 L12 8 L0 12 Z" clip-path="url(#clipPath23)" stroke="none" />
    </g>
    <g stroke-linecap="butt" transform="matrix(1,0,0,1,783.8164,247)" fill="rgb(96,96,96)" text-rendering="geometricPrecision" image-rendering="optimizeQuality" color-rendering="optimizeQuality" stroke="rgb(96,96,96)" color-interpolation="linearRGB" stroke-width="2">
      <path fill="none" d="M0 4 L12 8 L0 12 Z" clip-path="url(#clipPath23)" />
    </g>
    <g transform="matrix(1,0,0,1,783.8164,223)" fill-opacity="0.8" fill="rgb(255,255,255)" text-rendering="geometricPrecision" image-rendering="optimizeQuality" color-rendering="optimizeQuality" stroke="rgb(255,255,255)" color-interpolation="linearRGB" stroke-opacity="0.8">
      <rect x="6" y="2" clip-path="url(#clipPath16)" width="48.1771" height="16" stroke="none" />
    </g>
    <g font-size="13.3333" transform="matrix(1,0,0,1,789.8164,238) translate(0,-13)" fill-opacity="0" fill="rgb(0,0,0)" text-rendering="geometricPrecision" image-rendering="optimizeQuality" color-rendering="optimizeQuality" font-family="&apos;Arial&apos;" stroke="rgb(0,0,0)" color-interpolation="linearRGB" stroke-opacity="0">
      <rect x="0" y="0" clip-path="url(#clipPath29)" width="48" height="16" stroke="none" />
    </g>
    <g font-size="13.3333" transform="matrix(1,0,0,1,789.8164,238) translate(0,-13)" fill="rgb(96,96,96)" text-rendering="optimizeLegibility" image-rendering="optimizeQuality" color-rendering="optimizeQuality" font-family="&apos;Arial&apos;" stroke="rgb(96,96,96)" color-interpolation="linearRGB">
      <text xml:space="preserve" x="0" y="13" clip-path="url(#clipPath29)" stroke="none">setPoint</text>
    </g>
    <g stroke-linecap="butt" transform="matrix(1,0,0,1,783.8164,157)" fill="rgb(96,96,96)" text-rendering="geometricPrecision" color-rendering="optimizeQuality" image-rendering="optimizeQuality" stroke="rgb(96,96,96)" color-interpolation="linearRGB">
      <path fill="none" d="M0 0 L20 8 L0 16" />
    </g>
    <g text-rendering="geometricPrecision" transform="matrix(1,0,0,1,783.8164,157)" color-interpolation="linearRGB" color-rendering="optimizeQuality" image-rendering="optimizeQuality">
      <path d="M0 4 L12 8 L0 12 Z" clip-path="url(#clipPath23)" stroke="none" />
    </g>
    <g stroke-linecap="butt" transform="matrix(1,0,0,1,783.8164,157)" fill="rgb(96,96,96)" text-rendering="geometricPrecision" image-rendering="optimizeQuality" color-rendering="optimizeQuality" stroke="rgb(96,96,96)" color-interpolation="linearRGB" stroke-width="2">
      <path fill="none" d="M0 4 L12 8 L0 12 Z" clip-path="url(#clipPath23)" />
    </g>
    <g transform="matrix(1,0,0,1,783.8164,133)" fill-opacity="0.8" fill="rgb(255,255,255)" text-rendering="geometricPrecision" image-rendering="optimizeQuality" color-rendering="optimizeQuality" stroke="rgb(255,255,255)" color-interpolation="linearRGB" stroke-opacity="0.8">
      <rect x="6" y="2" clip-path="url(#clipPath21)" width="40.7617" height="16" stroke="none" />
    </g>
    <g font-size="13.3333" transform="matrix(1,0,0,1,789.8164,148) translate(0,-13)" fill-opacity="0" fill="rgb(0,0,0)" text-rendering="geometricPrecision" image-rendering="optimizeQuality" color-rendering="optimizeQuality" font-family="&apos;Arial&apos;" stroke="rgb(0,0,0)" color-interpolation="linearRGB" stroke-opacity="0">
      <rect x="0" y="0" clip-path="url(#clipPath30)" width="40" height="16" stroke="none" />
    </g>
    <g font-size="13.3333" transform="matrix(1,0,0,1,789.8164,148) translate(0,-13)" fill="rgb(96,96,96)" text-rendering="optimizeLegibility" image-rendering="optimizeQuality" color-rendering="optimizeQuality" font-family="&apos;Arial&apos;" stroke="rgb(96,96,96)" color-interpolation="linearRGB">
      <text xml:space="preserve" x="0" y="13" clip-path="url(#clipPath30)" stroke="none">fanAck</text>
    </g>
    <g text-rendering="geometricPrecision" transform="matrix(1,0,0,1,783.8164,202)" color-interpolation="linearRGB" color-rendering="optimizeQuality" image-rendering="optimizeQuality">
      <path d="M0 0 L20 8 L0 16 Z" clip-path="url(#clipPath10)" stroke="none" />
    </g>
    <g stroke-linecap="butt" transform="matrix(1,0,0,1,783.8164,202)" fill="rgb(96,96,96)" text-rendering="geometricPrecision" image-rendering="optimizeQuality" color-rendering="optimizeQuality" stroke="rgb(96,96,96)" color-interpolation="linearRGB" stroke-width="2">
      <path fill="none" d="M0 0 L20 8 L0 16 Z" clip-path="url(#clipPath10)" />
    </g>
    <g transform="matrix(1,0,0,1,783.8164,178)" fill-opacity="0.8" fill="rgb(255,255,255)" text-rendering="geometricPrecision" image-rendering="optimizeQuality" color-rendering="optimizeQuality" stroke="rgb(255,255,255)" color-interpolation="linearRGB" stroke-opacity="0.8">
      <rect x="6" y="2" clip-path="url(#clipPath11)" width="75.5794" height="16" stroke="none" />
    </g>
    <g font-size="13.3333" transform="matrix(1,0,0,1,789.8164,193) translate(0,-13)" fill-opacity="0" fill="rgb(0,0,0)" text-rendering="geometricPrecision" image-rendering="optimizeQuality" color-rendering="optimizeQuality" font-family="&apos;Arial&apos;" stroke="rgb(0,0,0)" color-interpolation="linearRGB" stroke-opacity="0">
      <rect x="0" y="0" clip-path="url(#clipPath31)" width="75" height="16" stroke="none" />
    </g>
    <g font-size="13.3333" transform="matrix(1,0,0,1,789.8164,193) translate(0,-13)" fill="rgb(96,96,96)" text-rendering="optimizeLegibility" image-rendering="optimizeQuality" color-rendering="optimizeQuality" font-family="&apos;Arial&apos;" stroke="rgb(96,96,96)" color-interpolation="linearRGB">
      <text xml:space="preserve" x="0" y="13" clip-path="url(#clipPath31)" stroke="none">currentTemp</text>
    </g>
    <g stroke-linecap="butt" transform="matrix(1,0,0,1,783.8164,292)" fill="rgb(96,96,96)" text-rendering="geometricPrecision" color-rendering="optimizeQuality" image-rendering="optimizeQuality" stroke="rgb(96,96,96)" color-interpolation="linearRGB">
      <path fill="none" d="M0 0 L20 8 L0 16" />
    </g>
    <g transform="matrix(1,0,0,1,783.8164,268)" fill-opacity="0.8" fill="rgb(255,255,255)" text-rendering="geometricPrecision" image-rendering="optimizeQuality" color-rendering="optimizeQuality" stroke="rgb(255,255,255)" color-interpolation="linearRGB" stroke-opacity="0.8">
      <rect x="6" y="2" clip-path="url(#clipPath13)" width="83.763" height="16" stroke="none" />
    </g>
    <g font-size="13.3333" transform="matrix(1,0,0,1,789.8164,283) translate(0,-13)" fill-opacity="0" fill="rgb(0,0,0)" text-rendering="geometricPrecision" image-rendering="optimizeQuality" color-rendering="optimizeQuality" font-family="&apos;Arial&apos;" stroke="rgb(0,0,0)" color-interpolation="linearRGB" stroke-opacity="0">
      <rect x="0" y="0" clip-path="url(#clipPath14)" width="83" height="16" stroke="none" />
    </g>
    <g font-size="13.3333" transform="matrix(1,0,0,1,789.8164,283) translate(0,-13)" fill="rgb(96,96,96)" text-rendering="optimizeLegibility" image-rendering="optimizeQuality" color-rendering="optimizeQuality" font-family="&apos;Arial&apos;" stroke="rgb(96,96,96)" color-interpolation="linearRGB">
      <text xml:space="preserve" x="0" y="13" clip-path="url(#clipPath14)" stroke="none">tempChanged</text>
    </g>
    <g stroke-linecap="butt" transform="matrix(1,0,0,1,783.8164,112)" fill="rgb(96,96,96)" text-rendering="geometricPrecision" color-rendering="optimizeQuality" image-rendering="optimizeQuality" stroke="rgb(96,96,96)" color-interpolation="linearRGB">
      <path fill="none" d="M20 0 L0 8 L20 16" />
    </g>
    <g text-rendering="geometricPrecision" transform="matrix(1,0,0,1,783.8164,112)" color-interpolation="linearRGB" color-rendering="optimizeQuality" image-rendering="optimizeQuality">
      <path d="M20 4 L8 8 L20 12 Z" clip-path="url(#clipPath15)" stroke="none" />
    </g>
    <g stroke-linecap="butt" transform="matrix(1,0,0,1,783.8164,112)" fill="rgb(96,96,96)" text-rendering="geometricPrecision" image-rendering="optimizeQuality" color-rendering="optimizeQuality" stroke="rgb(96,96,96)" color-interpolation="linearRGB" stroke-width="2">
      <path fill="none" d="M20 4 L8 8 L20 12 Z" clip-path="url(#clipPath15)" />
    </g>
    <g transform="matrix(1,0,0,1,783.8164,88)" fill-opacity="0.8" fill="rgb(255,255,255)" text-rendering="geometricPrecision" image-rendering="optimizeQuality" color-rendering="optimizeQuality" stroke="rgb(255,255,255)" color-interpolation="linearRGB" stroke-opacity="0.8">
      <rect x="6" y="2" clip-path="url(#clipPath24)" width="46.6862" height="16" stroke="none" />
    </g>
    <g font-size="13.3333" transform="matrix(1,0,0,1,789.8164,103) translate(0,-13)" fill-opacity="0" fill="rgb(0,0,0)" text-rendering="geometricPrecision" image-rendering="optimizeQuality" color-rendering="optimizeQuality" font-family="&apos;Arial&apos;" stroke="rgb(0,0,0)" color-interpolation="linearRGB" stroke-opacity="0">
      <rect x="0" y="0" clip-path="url(#clipPath32)" width="46" height="16" stroke="none" />
    </g>
    <g font-size="13.3333" transform="matrix(1,0,0,1,789.8164,103) translate(0,-13)" fill="rgb(96,96,96)" text-rendering="optimizeLegibility" image-rendering="optimizeQuality" color-rendering="optimizeQuality" font-family="&apos;Arial&apos;" stroke="rgb(96,96,96)" color-interpolation="linearRGB">
      <text xml:space="preserve" x="0" y="13" clip-path="url(#clipPath32)" stroke="none">fanCmd</text>
    </g>
    <g transform="matrix(1,0,0,1,891.5794,124.3333)" fill="white" text-rendering="geometricPrecision" color-rendering="optimizeQuality" image-rendering="optimizeQuality" stroke="white" color-interpolation="linearRGB">
      <path d="M0 35 L0 9 L6 0 L39 0 L45 9 L132.0326 9 L132.0326 35 Z" clip-path="url(#clipPath33)" stroke="none" />
    </g>
    <g stroke-linecap="butt" transform="matrix(1,0,0,1,891.5794,124.3333)" text-rendering="geometricPrecision" color-rendering="optimizeQuality" image-rendering="optimizeQuality" color-interpolation="linearRGB" stroke-width="2">
      <path fill="none" d="M0 35 L0 9 L6 0 L39 0 L45 9 L132.0326 9 L132.0326 35 Z" clip-path="url(#clipPath33)" />
    </g>
    <g transform="matrix(1,0,0,1,911.5794,131.3333)" fill-opacity="0.8" fill="rgb(255,255,255)" text-rendering="geometricPrecision" image-rendering="optimizeQuality" color-rendering="optimizeQuality" stroke="rgb(255,255,255)" color-interpolation="linearRGB" stroke-opacity="0.8">
      <rect x="6" y="2" clip-path="url(#clipPath34)" width="80.0326" height="16" stroke="none" />
    </g>
    <g font-size="13.3333" transform="matrix(1,0,0,1,917.5794,146.3333) translate(0,-13)" fill-opacity="0" fill="rgb(0,0,0)" text-rendering="geometricPrecision" image-rendering="optimizeQuality" color-rendering="optimizeQuality" font-family="&apos;Arial&apos;" stroke="rgb(0,0,0)" color-interpolation="linearRGB" stroke-opacity="0">
      <rect x="0" y="0" clip-path="url(#clipPath35)" width="80" height="16" stroke="none" />
    </g>
    <g font-size="13.3333" transform="matrix(1,0,0,1,917.5794,146.3333) translate(0,-13)" text-rendering="optimizeLegibility" image-rendering="optimizeQuality" color-rendering="optimizeQuality" font-family="&apos;Arial&apos;" color-interpolation="linearRGB">
      <text xml:space="preserve" x="0" y="13" clip-path="url(#clipPath35)" stroke="none">{**GUMBO**}</text>
    </g>
    <g transform="matrix(1,0,0,1,26,161.3333)" fill="white" text-rendering="geometricPrecision" color-rendering="optimizeQuality" image-rendering="optimizeQuality" stroke="white" color-interpolation="linearRGB">
      <path d="M20 0 L347.5586 0 L327.5586 110 L0 110 Z" clip-path="url(#clipPath36)" stroke="none" />
    </g>
    <g stroke-linecap="butt" transform="matrix(1,0,0,1,26,161.3333)" fill="rgb(96,96,96)" text-rendering="geometricPrecision" image-rendering="optimizeQuality" color-rendering="optimizeQuality" stroke-dasharray="6,2" stroke="rgb(96,96,96)" color-interpolation="linearRGB" stroke-width="4">
      <path fill="none" d="M20 0 L347.5586 0 L327.5586 110 L0 110 Z" clip-path="url(#clipPath36)" />
    </g>
    <g transform="matrix(1,0,0,1,155.2409,164.3333)" fill-opacity="0.8" fill="rgb(255,255,255)" text-rendering="geometricPrecision" image-rendering="optimizeQuality" color-rendering="optimizeQuality" stroke="rgb(255,255,255)" color-interpolation="linearRGB" stroke-opacity="0.8">
      <rect x="6" y="2" clip-path="url(#clipPath37)" width="77.0768" height="16" stroke="none" />
    </g>
    <g font-size="13.3333" transform="matrix(1,0,0,1,161.2409,179.3333) translate(0,-13)" fill-opacity="0" fill="rgb(0,0,0)" text-rendering="geometricPrecision" image-rendering="optimizeQuality" color-rendering="optimizeQuality" font-family="&apos;Arial&apos;" stroke="rgb(0,0,0)" color-interpolation="linearRGB" stroke-opacity="0">
      <rect x="0" y="0" clip-path="url(#clipPath38)" width="77" height="16" stroke="none" />
    </g>
    <g font-size="13.3333" transform="matrix(1,0,0,1,161.2409,179.3333) translate(0,-13)" fill="rgb(96,96,96)" text-rendering="optimizeLegibility" image-rendering="optimizeQuality" color-rendering="optimizeQuality" font-family="&apos;Arial&apos;" stroke="rgb(96,96,96)" color-interpolation="linearRGB">
      <text xml:space="preserve" x="0" y="13" clip-path="url(#clipPath38)" stroke="none">tempSensor*</text>
    </g>
    <g text-rendering="geometricPrecision" transform="matrix(-1,0,0,-1,373.5586,211.3333)" color-interpolation="linearRGB" color-rendering="optimizeQuality" image-rendering="optimizeQuality">
      <path d="M20 0 L0 8 L20 16 Z" clip-path="url(#clipPath39)" stroke="none" />
    </g>
    <g stroke-linecap="butt" transform="matrix(-1,0,0,-1,373.5586,211.3333)" fill="rgb(96,96,96)" text-rendering="geometricPrecision" image-rendering="optimizeQuality" color-rendering="optimizeQuality" stroke="rgb(96,96,96)" color-interpolation="linearRGB" stroke-width="2">
      <path fill="none" d="M20 0 L0 8 L20 16 Z" clip-path="url(#clipPath39)" />
    </g>
    <g transform="matrix(1,0,0,1,285.9792,171.3333)" fill-opacity="0.8" fill="rgb(255,255,255)" text-rendering="geometricPrecision" image-rendering="optimizeQuality" color-rendering="optimizeQuality" stroke="rgb(255,255,255)" color-interpolation="linearRGB" stroke-opacity="0.8">
      <rect x="6" y="2" clip-path="url(#clipPath11)" width="75.5794" height="16" stroke="none" />
    </g>
    <g font-size="13.3333" transform="matrix(1,0,0,1,291.9792,186.3333) translate(0,-13)" fill-opacity="0" fill="rgb(0,0,0)" text-rendering="geometricPrecision" image-rendering="optimizeQuality" color-rendering="optimizeQuality" font-family="&apos;Arial&apos;" stroke="rgb(0,0,0)" color-interpolation="linearRGB" stroke-opacity="0">
      <rect x="0" y="0" clip-path="url(#clipPath12)" width="75" height="16" stroke="none" />
    </g>
    <g font-size="13.3333" transform="matrix(1,0,0,1,291.9792,186.3333) translate(0,-13)" fill="rgb(96,96,96)" text-rendering="optimizeLegibility" image-rendering="optimizeQuality" color-rendering="optimizeQuality" font-family="&apos;Arial&apos;" stroke="rgb(96,96,96)" color-interpolation="linearRGB">
      <text xml:space="preserve" x="0" y="13" clip-path="url(#clipPath12)" stroke="none">currentTemp</text>
    </g>
    <g stroke-linecap="butt" transform="matrix(-1,0,0,-1,373.5586,261.3333)" fill="rgb(96,96,96)" text-rendering="geometricPrecision" color-rendering="optimizeQuality" image-rendering="optimizeQuality" stroke="rgb(96,96,96)" color-interpolation="linearRGB">
      <path fill="none" d="M20 0 L0 8 L20 16" />
    </g>
    <g transform="matrix(1,0,0,1,277.7956,221.3333)" fill-opacity="0.8" fill="rgb(255,255,255)" text-rendering="geometricPrecision" image-rendering="optimizeQuality" color-rendering="optimizeQuality" stroke="rgb(255,255,255)" color-interpolation="linearRGB" stroke-opacity="0.8">
      <rect x="6" y="2" clip-path="url(#clipPath13)" width="83.763" height="16" stroke="none" />
    </g>
    <g font-size="13.3333" transform="matrix(1,0,0,1,283.7956,236.3333) translate(0,-13)" fill-opacity="0" fill="rgb(0,0,0)" text-rendering="geometricPrecision" image-rendering="optimizeQuality" color-rendering="optimizeQuality" font-family="&apos;Arial&apos;" stroke="rgb(0,0,0)" color-interpolation="linearRGB" stroke-opacity="0">
      <rect x="0" y="0" clip-path="url(#clipPath40)" width="83" height="16" stroke="none" />
    </g>
    <g font-size="13.3333" transform="matrix(1,0,0,1,283.7956,236.3333) translate(0,-13)" fill="rgb(96,96,96)" text-rendering="optimizeLegibility" image-rendering="optimizeQuality" color-rendering="optimizeQuality" font-family="&apos;Arial&apos;" stroke="rgb(96,96,96)" color-interpolation="linearRGB">
      <text xml:space="preserve" x="0" y="13" clip-path="url(#clipPath40)" stroke="none">tempChanged</text>
    </g>
    <g transform="matrix(1,0,0,1,133.763,199.3333)" fill="white" text-rendering="geometricPrecision" color-rendering="optimizeQuality" image-rendering="optimizeQuality" stroke="white" color-interpolation="linearRGB">
      <path d="M0 35 L0 9 L6 0 L39 0 L45 9 L132.0326 9 L132.0326 35 Z" clip-path="url(#clipPath33)" stroke="none" />
    </g>
    <g stroke-linecap="butt" transform="matrix(1,0,0,1,133.763,199.3333)" text-rendering="geometricPrecision" color-rendering="optimizeQuality" image-rendering="optimizeQuality" color-interpolation="linearRGB" stroke-width="2">
      <path fill="none" d="M0 35 L0 9 L6 0 L39 0 L45 9 L132.0326 9 L132.0326 35 Z" clip-path="url(#clipPath33)" />
    </g>
    <g transform="matrix(1,0,0,1,153.763,206.3333)" fill-opacity="0.8" fill="rgb(255,255,255)" text-rendering="geometricPrecision" image-rendering="optimizeQuality" color-rendering="optimizeQuality" stroke="rgb(255,255,255)" color-interpolation="linearRGB" stroke-opacity="0.8">
      <rect x="6" y="2" clip-path="url(#clipPath34)" width="80.0326" height="16" stroke="none" />
    </g>
    <g font-size="13.3333" transform="matrix(1,0,0,1,159.763,221.3333) translate(0,-13)" fill-opacity="0" fill="rgb(0,0,0)" text-rendering="geometricPrecision" image-rendering="optimizeQuality" color-rendering="optimizeQuality" font-family="&apos;Arial&apos;" stroke="rgb(0,0,0)" color-interpolation="linearRGB" stroke-opacity="0">
      <rect x="0" y="0" clip-path="url(#clipPath41)" width="80" height="16" stroke="none" />
    </g>
    <g font-size="13.3333" transform="matrix(1,0,0,1,159.763,221.3333) translate(0,-13)" text-rendering="optimizeLegibility" image-rendering="optimizeQuality" color-rendering="optimizeQuality" font-family="&apos;Arial&apos;" color-interpolation="linearRGB">
      <text xml:space="preserve" x="0" y="13" clip-path="url(#clipPath41)" stroke="none">{**GUMBO**}</text>
    </g>
    <g stroke-linecap="butt" transform="matrix(1,0,0,1,372.0586,252.8333)" fill="rgb(96,96,96)" text-rendering="geometricPrecision" color-rendering="optimizeQuality" image-rendering="optimizeQuality" stroke="rgb(96,96,96)" color-interpolation="linearRGB">
      <path fill="none" d="M0.5 0.5 L11.5 0.5 L11.5 81.5 L401.7578 81.5 L401.7578 33.8333 L412.7578 47.1667" />
    </g>
    <g stroke-linecap="butt" transform="matrix(1,0,0,1,372.0586,202.8333)" fill="rgb(96,96,96)" text-rendering="geometricPrecision" color-rendering="optimizeQuality" image-rendering="optimizeQuality" stroke="rgb(96,96,96)" color-interpolation="linearRGB">
      <path fill="none" d="M0.5 0.5 L21.5 0.5 L21.5 53.5 L32.5 53.5" />
    </g>
    <g stroke-linecap="butt" transform="matrix(1,0,0,1,752.3164,119.5)" fill="rgb(96,96,96)" text-rendering="geometricPrecision" color-rendering="optimizeQuality" image-rendering="optimizeQuality" stroke="rgb(96,96,96)" color-interpolation="linearRGB">
      <path fill="none" d="M32.5 0.5 L0.5 0.5" />
    </g>
    <g stroke-linecap="butt" transform="matrix(1,0,0,1,372.0586,202.8333)" fill="rgb(96,96,96)" text-rendering="geometricPrecision" color-rendering="optimizeQuality" image-rendering="optimizeQuality" stroke="rgb(96,96,96)" color-interpolation="linearRGB">
      <path fill="none" d="M0.5 0.5 L412.7578 7.1667" />
    </g>
    <g stroke-linecap="butt" transform="matrix(1,0,0,1,752.3164,161.1667)" fill="rgb(96,96,96)" text-rendering="geometricPrecision" color-rendering="optimizeQuality" image-rendering="optimizeQuality" stroke="rgb(96,96,96)" color-interpolation="linearRGB">
      <path fill="none" d="M0.5 8.8333 L11.5 8.8333 L11.5 0.5 L32.5 3.8333" />
    </g>
    <g stroke-linecap="butt" transform="matrix(1,0,0,1,752.3164,244.5)" fill="rgb(96,96,96)" text-rendering="geometricPrecision" color-rendering="optimizeQuality" image-rendering="optimizeQuality" stroke="rgb(96,96,96)" color-interpolation="linearRGB">
      <path fill="none" d="M0.5 36.8333 L11.5 36.8333 L11.5 0.5 L32.5 10.5" />
    </g>
    <g stroke-linecap="butt" transform="matrix(1,0,0,1,372.0586,252.8333)" fill="rgb(96,96,96)" text-rendering="geometricPrecision" color-rendering="optimizeQuality" image-rendering="optimizeQuality" stroke="rgb(96,96,96)" color-interpolation="linearRGB">
      <path fill="none" d="M0.5 0.5 L11.5 0.5 L11.5 53.5 L32.5 53.5" />
    </g>
  </g>
</svg>
