<?xml version="1.0" encoding="UTF-8"?>

<!DOCTYPE svg PUBLIC '-//W3C//DTD SVG 1.0//EN' 'http://www.w3.org/TR/2001/REC-SVG-20010904/DTD/svg10.dtd'>
<svg fill-opacity="1" xmlns:xlink="http://www.w3.org/1999/xlink" color-rendering="auto" color-interpolation="auto" text-rendering="auto" stroke="black" stroke-linecap="square" width="1099" stroke-miterlimit="10" shape-rendering="auto" stroke-opacity="1" fill="black" stroke-dasharray="none" font-weight="normal" stroke-width="1" height="307" xmlns="http://www.w3.org/2000/svg" font-family="&apos;Dialog&apos;" font-style="normal" stroke-linejoin="miter" font-size="12" stroke-dashoffset="0" image-rendering="auto">
  <!--Generated by the Batik Graphics2D SVG Generator-->
  <defs id="genericDefs" />
  <g>
    <defs id="defs1">
      <clipPath clipPathUnits="userSpaceOnUse" id="clipPath1">
        <path d="M0 12.5 L0 290 C0 296.9036 5.5964 302.5 12.5 302.5 L1081.7734 302.5 C1088.677 302.5 1094.2734 296.9036 1094.2734 290 L1094.2734 12.5 C1094.2734 5.5964 1088.677 0 1081.7734 0 L12.5 0 C5.5964 0 0 5.5964 0 12.5 Z" />
      </clipPath>
      <clipPath clipPathUnits="userSpaceOnUse" id="clipPath2">
        <path d="M6 2 L196.4427 2 L196.4427 18 L6 18 L6 2 Z" />
      </clipPath>
      <clipPath clipPathUnits="userSpaceOnUse" id="clipPath3">
        <path d="M0 0 L190 0 L190 16 L0 16 L0 0 Z" />
      </clipPath>
      <clipPath clipPathUnits="userSpaceOnUse" id="clipPath4">
        <path d="M20 0 L1070.2734 0 L1050.2734 252.5 L0 252.5 Z" />
      </clipPath>
      <clipPath clipPathUnits="userSpaceOnUse" id="clipPath5">
        <path d="M6 2 L47.4974 2 L47.4974 18 L6 18 L6 2 Z" />
      </clipPath>
      <clipPath clipPathUnits="userSpaceOnUse" id="clipPath6">
        <path d="M-0 0 L41 0 L41 16 L-0 16 L-0 0 Z" />
      </clipPath>
      <clipPath clipPathUnits="userSpaceOnUse" id="clipPath7">
        <path d="M20 0 L331.1914 0 L311.1914 175 L0 175 Z" />
      </clipPath>
      <clipPath clipPathUnits="userSpaceOnUse" id="clipPath8">
        <path d="M6 2 L83.8125 2 L83.8125 18 L6 18 L6 2 Z" />
      </clipPath>
      <clipPath clipPathUnits="userSpaceOnUse" id="clipPath9">
        <path d="M0 0 L77 0 L77 16 L0 16 L0 0 Z" />
      </clipPath>
      <clipPath clipPathUnits="userSpaceOnUse" id="clipPath10">
        <path d="M0 0 L20 8 L0 16 Z" />
      </clipPath>
      <clipPath clipPathUnits="userSpaceOnUse" id="clipPath11">
        <path d="M6 2 L54.1771 2 L54.1771 18 L6 18 L6 2 Z" />
      </clipPath>
      <clipPath clipPathUnits="userSpaceOnUse" id="clipPath12">
        <path d="M0 0 L48 0 L48 16 L0 16 L0 0 Z" />
      </clipPath>
      <clipPath clipPathUnits="userSpaceOnUse" id="clipPath13">
        <path d="M6 2 L46.7617 2 L46.7617 18 L6 18 L6 2 Z" />
      </clipPath>
      <clipPath clipPathUnits="userSpaceOnUse" id="clipPath14">
        <path d="M0 0 L40 0 L40 16 L0 16 L0 0 Z" />
      </clipPath>
      <clipPath clipPathUnits="userSpaceOnUse" id="clipPath15">
        <path d="M6 2 L81.5794 2 L81.5794 18 L6 18 L6 2 Z" />
      </clipPath>
      <clipPath clipPathUnits="userSpaceOnUse" id="clipPath16">
        <path d="M0 0 L75 0 L75 16 L0 16 L0 0 Z" />
      </clipPath>
      <clipPath clipPathUnits="userSpaceOnUse" id="clipPath17">
        <path d="M20 0 L0 8 L20 16 Z" />
      </clipPath>
      <clipPath clipPathUnits="userSpaceOnUse" id="clipPath18">
        <path d="M6 2 L52.6862 2 L52.6862 18 L6 18 L6 2 Z" />
      </clipPath>
      <clipPath clipPathUnits="userSpaceOnUse" id="clipPath19">
        <path d="M0 0 L46 0 L46 16 L0 16 L0 0 Z" />
      </clipPath>
      <clipPath clipPathUnits="userSpaceOnUse" id="clipPath20">
        <path d="M0 35 L0 9 L6 0 L39 0 L45 9 L132.0326 9 L132.0326 35 Z" />
      </clipPath>
      <clipPath clipPathUnits="userSpaceOnUse" id="clipPath21">
        <path d="M6 2 L86.0326 2 L86.0326 18 L6 18 L6 2 Z" />
      </clipPath>
      <clipPath clipPathUnits="userSpaceOnUse" id="clipPath22">
        <path d="M-0 0 L80 0 L80 16 L-0 16 L-0 0 Z" />
      </clipPath>
      <clipPath clipPathUnits="userSpaceOnUse" id="clipPath23">
        <path d="M20 0 L333.8906 0 L313.8906 60 L0 60 Z" />
      </clipPath>
      <clipPath clipPathUnits="userSpaceOnUse" id="clipPath24">
        <path d="M6 2 L112.7318 2 L112.7318 18 L6 18 L6 2 Z" />
      </clipPath>
      <clipPath clipPathUnits="userSpaceOnUse" id="clipPath25">
        <path d="M-0 0 L106 0 L106 16 L-0 16 L-0 0 Z" />
      </clipPath>
      <clipPath clipPathUnits="userSpaceOnUse" id="clipPath26">
        <path d="M20 0 L193.0963 0 L173.0963 110 L0 110 Z" />
      </clipPath>
      <clipPath clipPathUnits="userSpaceOnUse" id="clipPath27">
        <path d="M6 2 L29.724 2 L29.724 18 L6 18 L6 2 Z" />
      </clipPath>
      <clipPath clipPathUnits="userSpaceOnUse" id="clipPath28">
        <path d="M0 0 L23 0 L23 16 L0 16 L0 0 Z" />
      </clipPath>
      <clipPath clipPathUnits="userSpaceOnUse" id="clipPath29">
        <path d="M-0 0 L46 0 L46 16 L-0 16 L-0 0 Z" />
      </clipPath>
      <clipPath clipPathUnits="userSpaceOnUse" id="clipPath30">
        <path d="M20 0 L331.1914 0 L311.1914 85 L0 85 Z" />
      </clipPath>
      <clipPath clipPathUnits="userSpaceOnUse" id="clipPath31">
        <path d="M6 2 L83.0768 2 L83.0768 18 L6 18 L6 2 Z" />
      </clipPath>
      <clipPath clipPathUnits="userSpaceOnUse" id="clipPath32">
        <path d="M0 0 L80 0 L80 16 L0 16 L0 0 Z" />
      </clipPath>
    </defs>
    <g transform="matrix(1,0,0,1,2,2)" fill="white" text-rendering="geometricPrecision" color-rendering="optimizeQuality" image-rendering="optimizeQuality" stroke="white" color-interpolation="linearRGB">
      <rect x="0" y="0" clip-path="url(#clipPath1)" width="1094.2734" rx="12.5" ry="12.5" height="302.5" stroke="none" />
    </g>
    <g stroke-linecap="butt" transform="matrix(1,0,0,1,2,2)" text-rendering="geometricPrecision" color-rendering="optimizeQuality" image-rendering="optimizeQuality" color-interpolation="linearRGB" stroke-width="4">
      <rect x="0" y="0" clip-path="url(#clipPath1)" fill="none" width="1094.2734" rx="12.5" ry="12.5" height="302.5" />
    </g>
    <g transform="matrix(1,0,0,1,447.9154,5)" fill-opacity="0.8" fill="rgb(255,255,255)" text-rendering="geometricPrecision" image-rendering="optimizeQuality" color-rendering="optimizeQuality" stroke="rgb(255,255,255)" color-interpolation="linearRGB" stroke-opacity="0.8">
      <rect x="6" y="2" clip-path="url(#clipPath2)" width="190.4427" height="16" stroke="none" />
    </g>
    <g font-size="13.3333" transform="matrix(1,0,0,1,453.9154,20) translate(0,-13)" fill-opacity="0" fill="rgb(0,0,0)" text-rendering="geometricPrecision" image-rendering="optimizeQuality" color-rendering="optimizeQuality" font-family="&apos;Arial&apos;" stroke="rgb(0,0,0)" color-interpolation="linearRGB" stroke-opacity="0">
      <rect x="0" y="0" clip-path="url(#clipPath3)" width="190" height="16" stroke="none" />
    </g>
    <g font-size="13.3333" transform="matrix(1,0,0,1,453.9154,20) translate(0,-13)" text-rendering="optimizeLegibility" image-rendering="optimizeQuality" color-rendering="optimizeQuality" font-family="&apos;Arial&apos;" color-interpolation="linearRGB">
      <text xml:space="preserve" x="0" y="13" clip-path="url(#clipPath3)" stroke="none">TempControlSoftwareSystem.p*</text>
    </g>
    <g transform="matrix(1,0,0,1,14,40)" fill="white" text-rendering="geometricPrecision" color-rendering="optimizeQuality" image-rendering="optimizeQuality" stroke="white" color-interpolation="linearRGB">
      <path d="M20 0 L1070.2734 0 L1050.2734 252.5 L0 252.5 Z" clip-path="url(#clipPath4)" stroke="none" />
    </g>
    <g stroke-linecap="butt" transform="matrix(1,0,0,1,14,40)" text-rendering="geometricPrecision" color-rendering="optimizeQuality" image-rendering="optimizeQuality" color-interpolation="linearRGB" stroke-width="4">
      <path fill="none" d="M20 0 L1070.2734 0 L1050.2734 252.5 L0 252.5 Z" clip-path="url(#clipPath4)" />
    </g>
    <g transform="matrix(1,0,0,1,522.388,43)" fill-opacity="0.8" fill="rgb(255,255,255)" text-rendering="geometricPrecision" image-rendering="optimizeQuality" color-rendering="optimizeQuality" stroke="rgb(255,255,255)" color-interpolation="linearRGB" stroke-opacity="0.8">
      <rect x="6" y="2" clip-path="url(#clipPath5)" width="41.4974" height="16" stroke="none" />
    </g>
    <g font-size="13.3333" transform="matrix(1,0,0,1,528.388,58) translate(0,-13)" fill-opacity="0" fill="rgb(0,0,0)" text-rendering="geometricPrecision" image-rendering="optimizeQuality" color-rendering="optimizeQuality" font-family="&apos;Arial&apos;" stroke="rgb(0,0,0)" color-interpolation="linearRGB" stroke-opacity="0">
      <rect x="0" y="0" clip-path="url(#clipPath6)" width="41" height="16" stroke="none" />
    </g>
    <g font-size="13.3333" transform="matrix(1,0,0,1,528.388,58) translate(0,-13)" text-rendering="optimizeLegibility" image-rendering="optimizeQuality" color-rendering="optimizeQuality" font-family="&apos;Arial&apos;" color-interpolation="linearRGB">
      <text xml:space="preserve" x="0" y="13" clip-path="url(#clipPath6)" stroke="none">tcproc*</text>
    </g>
    <g transform="matrix(1,0,0,1,741.082,88)" fill="white" text-rendering="geometricPrecision" color-rendering="optimizeQuality" image-rendering="optimizeQuality" stroke="white" color-interpolation="linearRGB">
      <path d="M20 0 L331.1914 0 L311.1914 175 L0 175 Z" clip-path="url(#clipPath7)" stroke="none" />
    </g>
    <g stroke-linecap="butt" transform="matrix(1,0,0,1,741.082,88)" fill="rgb(96,96,96)" text-rendering="geometricPrecision" image-rendering="optimizeQuality" color-rendering="optimizeQuality" stroke-dasharray="6,2" stroke="rgb(96,96,96)" color-interpolation="linearRGB" stroke-width="4">
      <path fill="none" d="M20 0 L331.1914 0 L311.1914 175 L0 175 Z" clip-path="url(#clipPath7)" />
    </g>
    <g transform="matrix(1,0,0,1,861.7715,91)" fill-opacity="0.8" fill="rgb(255,255,255)" text-rendering="geometricPrecision" image-rendering="optimizeQuality" color-rendering="optimizeQuality" stroke="rgb(255,255,255)" color-interpolation="linearRGB" stroke-opacity="0.8">
      <rect x="6" y="2" clip-path="url(#clipPath8)" width="77.8125" height="16" stroke="none" />
    </g>
    <g font-size="13.3333" transform="matrix(1,0,0,1,867.7715,106) translate(0,-13)" fill-opacity="0" fill="rgb(0,0,0)" text-rendering="geometricPrecision" image-rendering="optimizeQuality" color-rendering="optimizeQuality" font-family="&apos;Arial&apos;" stroke="rgb(0,0,0)" color-interpolation="linearRGB" stroke-opacity="0">
      <rect x="0" y="0" clip-path="url(#clipPath9)" width="77" height="16" stroke="none" />
    </g>
    <g font-size="13.3333" transform="matrix(1,0,0,1,867.7715,106) translate(0,-13)" fill="rgb(96,96,96)" text-rendering="optimizeLegibility" image-rendering="optimizeQuality" color-rendering="optimizeQuality" font-family="&apos;Arial&apos;" stroke="rgb(96,96,96)" color-interpolation="linearRGB">
      <text xml:space="preserve" x="0" y="13" clip-path="url(#clipPath9)" stroke="none">tempControl*</text>
    </g>
    <g text-rendering="geometricPrecision" transform="matrix(1,0,0,1,741.082,202)" color-interpolation="linearRGB" color-rendering="optimizeQuality" image-rendering="optimizeQuality">
      <path d="M0 0 L20 8 L0 16 Z" clip-path="url(#clipPath10)" stroke="none" />
    </g>
    <g stroke-linecap="butt" transform="matrix(1,0,0,1,741.082,202)" fill="rgb(96,96,96)" text-rendering="geometricPrecision" image-rendering="optimizeQuality" color-rendering="optimizeQuality" stroke="rgb(96,96,96)" color-interpolation="linearRGB" stroke-width="2">
      <path fill="none" d="M0 0 L20 8 L0 16 Z" clip-path="url(#clipPath10)" />
    </g>
    <g transform="matrix(1,0,0,1,741.082,178)" fill-opacity="0.8" fill="rgb(255,255,255)" text-rendering="geometricPrecision" image-rendering="optimizeQuality" color-rendering="optimizeQuality" stroke="rgb(255,255,255)" color-interpolation="linearRGB" stroke-opacity="0.8">
      <rect x="6" y="2" clip-path="url(#clipPath11)" width="48.1771" height="16" stroke="none" />
    </g>
    <g font-size="13.3333" transform="matrix(1,0,0,1,747.082,193) translate(0,-13)" fill-opacity="0" fill="rgb(0,0,0)" text-rendering="geometricPrecision" image-rendering="optimizeQuality" color-rendering="optimizeQuality" font-family="&apos;Arial&apos;" stroke="rgb(0,0,0)" color-interpolation="linearRGB" stroke-opacity="0">
      <rect x="0" y="0" clip-path="url(#clipPath12)" width="48" height="16" stroke="none" />
    </g>
    <g font-size="13.3333" transform="matrix(1,0,0,1,747.082,193) translate(0,-13)" fill="rgb(96,96,96)" text-rendering="optimizeLegibility" image-rendering="optimizeQuality" color-rendering="optimizeQuality" font-family="&apos;Arial&apos;" stroke="rgb(96,96,96)" color-interpolation="linearRGB">
      <text xml:space="preserve" x="0" y="13" clip-path="url(#clipPath12)" stroke="none">setPoint</text>
    </g>
    <g text-rendering="geometricPrecision" transform="matrix(1,0,0,1,741.082,157)" color-interpolation="linearRGB" color-rendering="optimizeQuality" image-rendering="optimizeQuality">
      <path d="M0 0 L20 8 L0 16 Z" clip-path="url(#clipPath10)" stroke="none" />
    </g>
    <g stroke-linecap="butt" transform="matrix(1,0,0,1,741.082,157)" fill="rgb(96,96,96)" text-rendering="geometricPrecision" image-rendering="optimizeQuality" color-rendering="optimizeQuality" stroke="rgb(96,96,96)" color-interpolation="linearRGB" stroke-width="2">
      <path fill="none" d="M0 0 L20 8 L0 16 Z" clip-path="url(#clipPath10)" />
    </g>
    <g transform="matrix(1,0,0,1,741.082,133)" fill-opacity="0.8" fill="rgb(255,255,255)" text-rendering="geometricPrecision" image-rendering="optimizeQuality" color-rendering="optimizeQuality" stroke="rgb(255,255,255)" color-interpolation="linearRGB" stroke-opacity="0.8">
      <rect x="6" y="2" clip-path="url(#clipPath13)" width="40.7617" height="16" stroke="none" />
    </g>
    <g font-size="13.3333" transform="matrix(1,0,0,1,747.082,148) translate(0,-13)" fill-opacity="0" fill="rgb(0,0,0)" text-rendering="geometricPrecision" image-rendering="optimizeQuality" color-rendering="optimizeQuality" font-family="&apos;Arial&apos;" stroke="rgb(0,0,0)" color-interpolation="linearRGB" stroke-opacity="0">
      <rect x="0" y="0" clip-path="url(#clipPath14)" width="40" height="16" stroke="none" />
    </g>
    <g font-size="13.3333" transform="matrix(1,0,0,1,747.082,148) translate(0,-13)" fill="rgb(96,96,96)" text-rendering="optimizeLegibility" image-rendering="optimizeQuality" color-rendering="optimizeQuality" font-family="&apos;Arial&apos;" stroke="rgb(96,96,96)" color-interpolation="linearRGB">
      <text xml:space="preserve" x="0" y="13" clip-path="url(#clipPath14)" stroke="none">fanAck</text>
    </g>
    <g text-rendering="geometricPrecision" transform="matrix(1,0,0,1,741.082,247)" color-interpolation="linearRGB" color-rendering="optimizeQuality" image-rendering="optimizeQuality">
      <path d="M0 0 L20 8 L0 16 Z" clip-path="url(#clipPath10)" stroke="none" />
    </g>
    <g stroke-linecap="butt" transform="matrix(1,0,0,1,741.082,247)" fill="rgb(96,96,96)" text-rendering="geometricPrecision" image-rendering="optimizeQuality" color-rendering="optimizeQuality" stroke="rgb(96,96,96)" color-interpolation="linearRGB" stroke-width="2">
      <path fill="none" d="M0 0 L20 8 L0 16 Z" clip-path="url(#clipPath10)" />
    </g>
    <g transform="matrix(1,0,0,1,741.082,223)" fill-opacity="0.8" fill="rgb(255,255,255)" text-rendering="geometricPrecision" image-rendering="optimizeQuality" color-rendering="optimizeQuality" stroke="rgb(255,255,255)" color-interpolation="linearRGB" stroke-opacity="0.8">
      <rect x="6" y="2" clip-path="url(#clipPath15)" width="75.5794" height="16" stroke="none" />
    </g>
    <g font-size="13.3333" transform="matrix(1,0,0,1,747.082,238) translate(0,-13)" fill-opacity="0" fill="rgb(0,0,0)" text-rendering="geometricPrecision" image-rendering="optimizeQuality" color-rendering="optimizeQuality" font-family="&apos;Arial&apos;" stroke="rgb(0,0,0)" color-interpolation="linearRGB" stroke-opacity="0">
      <rect x="0" y="0" clip-path="url(#clipPath16)" width="75" height="16" stroke="none" />
    </g>
    <g font-size="13.3333" transform="matrix(1,0,0,1,747.082,238) translate(0,-13)" fill="rgb(96,96,96)" text-rendering="optimizeLegibility" image-rendering="optimizeQuality" color-rendering="optimizeQuality" font-family="&apos;Arial&apos;" stroke="rgb(96,96,96)" color-interpolation="linearRGB">
      <text xml:space="preserve" x="0" y="13" clip-path="url(#clipPath16)" stroke="none">currentTemp</text>
    </g>
    <g text-rendering="geometricPrecision" transform="matrix(1,0,0,1,741.082,112)" color-interpolation="linearRGB" color-rendering="optimizeQuality" image-rendering="optimizeQuality">
      <path d="M20 0 L0 8 L20 16 Z" clip-path="url(#clipPath17)" stroke="none" />
    </g>
    <g stroke-linecap="butt" transform="matrix(1,0,0,1,741.082,112)" fill="rgb(96,96,96)" text-rendering="geometricPrecision" image-rendering="optimizeQuality" color-rendering="optimizeQuality" stroke="rgb(96,96,96)" color-interpolation="linearRGB" stroke-width="2">
      <path fill="none" d="M20 0 L0 8 L20 16 Z" clip-path="url(#clipPath17)" />
    </g>
    <g transform="matrix(1,0,0,1,741.082,88)" fill-opacity="0.8" fill="rgb(255,255,255)" text-rendering="geometricPrecision" image-rendering="optimizeQuality" color-rendering="optimizeQuality" stroke="rgb(255,255,255)" color-interpolation="linearRGB" stroke-opacity="0.8">
      <rect x="6" y="2" clip-path="url(#clipPath18)" width="46.6862" height="16" stroke="none" />
    </g>
    <g font-size="13.3333" transform="matrix(1,0,0,1,747.082,103) translate(0,-13)" fill-opacity="0" fill="rgb(0,0,0)" text-rendering="geometricPrecision" image-rendering="optimizeQuality" color-rendering="optimizeQuality" font-family="&apos;Arial&apos;" stroke="rgb(0,0,0)" color-interpolation="linearRGB" stroke-opacity="0">
      <rect x="0" y="0" clip-path="url(#clipPath19)" width="46" height="16" stroke="none" />
    </g>
    <g font-size="13.3333" transform="matrix(1,0,0,1,747.082,103) translate(0,-13)" fill="rgb(96,96,96)" text-rendering="optimizeLegibility" image-rendering="optimizeQuality" color-rendering="optimizeQuality" font-family="&apos;Arial&apos;" stroke="rgb(96,96,96)" color-interpolation="linearRGB">
      <text xml:space="preserve" x="0" y="13" clip-path="url(#clipPath19)" stroke="none">fanCmd</text>
    </g>
    <g transform="matrix(1,0,0,1,840.6615,126)" fill="white" text-rendering="geometricPrecision" color-rendering="optimizeQuality" image-rendering="optimizeQuality" stroke="white" color-interpolation="linearRGB">
      <path d="M0 35 L0 9 L6 0 L39 0 L45 9 L132.0326 9 L132.0326 35 Z" clip-path="url(#clipPath20)" stroke="none" />
    </g>
    <g stroke-linecap="butt" transform="matrix(1,0,0,1,840.6615,126)" text-rendering="geometricPrecision" color-rendering="optimizeQuality" image-rendering="optimizeQuality" color-interpolation="linearRGB" stroke-width="2">
      <path fill="none" d="M0 35 L0 9 L6 0 L39 0 L45 9 L132.0326 9 L132.0326 35 Z" clip-path="url(#clipPath20)" />
    </g>
    <g transform="matrix(1,0,0,1,860.6615,133)" fill-opacity="0.8" fill="rgb(255,255,255)" text-rendering="geometricPrecision" image-rendering="optimizeQuality" color-rendering="optimizeQuality" stroke="rgb(255,255,255)" color-interpolation="linearRGB" stroke-opacity="0.8">
      <rect x="6" y="2" clip-path="url(#clipPath21)" width="80.0326" height="16" stroke="none" />
    </g>
    <g font-size="13.3333" transform="matrix(1,0,0,1,866.6615,148) translate(0,-13)" fill-opacity="0" fill="rgb(0,0,0)" text-rendering="geometricPrecision" image-rendering="optimizeQuality" color-rendering="optimizeQuality" font-family="&apos;Arial&apos;" stroke="rgb(0,0,0)" color-interpolation="linearRGB" stroke-opacity="0">
      <rect x="0" y="0" clip-path="url(#clipPath22)" width="80" height="16" stroke="none" />
    </g>
    <g font-size="13.3333" transform="matrix(1,0,0,1,866.6615,148) translate(0,-13)" text-rendering="optimizeLegibility" image-rendering="optimizeQuality" color-rendering="optimizeQuality" font-family="&apos;Arial&apos;" color-interpolation="linearRGB">
      <text xml:space="preserve" x="0" y="13" clip-path="url(#clipPath22)" stroke="none">{**GUMBO**}</text>
    </g>
    <g transform="matrix(1,0,0,1,377.1914,208)" fill="white" text-rendering="geometricPrecision" color-rendering="optimizeQuality" image-rendering="optimizeQuality" stroke="white" color-interpolation="linearRGB">
      <path d="M20 0 L333.8906 0 L313.8906 60 L0 60 Z" clip-path="url(#clipPath23)" stroke="none" />
    </g>
    <g stroke-linecap="butt" transform="matrix(1,0,0,1,377.1914,208)" fill="rgb(96,96,96)" text-rendering="geometricPrecision" image-rendering="optimizeQuality" color-rendering="optimizeQuality" stroke-dasharray="6,2" stroke="rgb(96,96,96)" color-interpolation="linearRGB" stroke-width="4">
      <path fill="none" d="M20 0 L333.8906 0 L313.8906 60 L0 60 Z" clip-path="url(#clipPath23)" />
    </g>
    <g transform="matrix(1,0,0,1,484.7708,211)" fill-opacity="0.8" fill="rgb(255,255,255)" text-rendering="geometricPrecision" image-rendering="optimizeQuality" color-rendering="optimizeQuality" stroke="rgb(255,255,255)" color-interpolation="linearRGB" stroke-opacity="0.8">
      <rect x="6" y="2" clip-path="url(#clipPath24)" width="106.7318" height="16" stroke="none" />
    </g>
    <g font-size="13.3333" transform="matrix(1,0,0,1,490.7708,226) translate(0,-13)" fill-opacity="0" fill="rgb(0,0,0)" text-rendering="geometricPrecision" image-rendering="optimizeQuality" color-rendering="optimizeQuality" font-family="&apos;Arial&apos;" stroke="rgb(0,0,0)" color-interpolation="linearRGB" stroke-opacity="0">
      <rect x="0" y="0" clip-path="url(#clipPath25)" width="106" height="16" stroke="none" />
    </g>
    <g font-size="13.3333" transform="matrix(1,0,0,1,490.7708,226) translate(0,-13)" fill="rgb(96,96,96)" text-rendering="optimizeLegibility" image-rendering="optimizeQuality" color-rendering="optimizeQuality" font-family="&apos;Arial&apos;" stroke="rgb(96,96,96)" color-interpolation="linearRGB">
      <text xml:space="preserve" x="0" y="13" clip-path="url(#clipPath25)" stroke="none">operatorInterface*</text>
    </g>
    <g text-rendering="geometricPrecision" transform="matrix(1,0,0,1,377.1914,242)" color-interpolation="linearRGB" color-rendering="optimizeQuality" image-rendering="optimizeQuality">
      <path d="M0 0 L20 8 L0 16 Z" clip-path="url(#clipPath10)" stroke="none" />
    </g>
    <g stroke-linecap="butt" transform="matrix(1,0,0,1,377.1914,242)" fill="rgb(96,96,96)" text-rendering="geometricPrecision" image-rendering="optimizeQuality" color-rendering="optimizeQuality" stroke="rgb(96,96,96)" color-interpolation="linearRGB" stroke-width="2">
      <path fill="none" d="M0 0 L20 8 L0 16 Z" clip-path="url(#clipPath10)" />
    </g>
    <g transform="matrix(1,0,0,1,377.1914,218)" fill-opacity="0.8" fill="rgb(255,255,255)" text-rendering="geometricPrecision" image-rendering="optimizeQuality" color-rendering="optimizeQuality" stroke="rgb(255,255,255)" color-interpolation="linearRGB" stroke-opacity="0.8">
      <rect x="6" y="2" clip-path="url(#clipPath15)" width="75.5794" height="16" stroke="none" />
    </g>
    <g font-size="13.3333" transform="matrix(1,0,0,1,383.1914,233) translate(0,-13)" fill-opacity="0" fill="rgb(0,0,0)" text-rendering="geometricPrecision" image-rendering="optimizeQuality" color-rendering="optimizeQuality" font-family="&apos;Arial&apos;" stroke="rgb(0,0,0)" color-interpolation="linearRGB" stroke-opacity="0">
      <rect x="0" y="0" clip-path="url(#clipPath16)" width="75" height="16" stroke="none" />
    </g>
    <g font-size="13.3333" transform="matrix(1,0,0,1,383.1914,233) translate(0,-13)" fill="rgb(96,96,96)" text-rendering="optimizeLegibility" image-rendering="optimizeQuality" color-rendering="optimizeQuality" font-family="&apos;Arial&apos;" stroke="rgb(96,96,96)" color-interpolation="linearRGB">
      <text xml:space="preserve" x="0" y="13" clip-path="url(#clipPath16)" stroke="none">currentTemp</text>
    </g>
    <g text-rendering="geometricPrecision" transform="matrix(-1,0,0,-1,711.082,258)" color-interpolation="linearRGB" color-rendering="optimizeQuality" image-rendering="optimizeQuality">
      <path d="M20 0 L0 8 L20 16 Z" clip-path="url(#clipPath17)" stroke="none" />
    </g>
    <g stroke-linecap="butt" transform="matrix(-1,0,0,-1,711.082,258)" fill="rgb(96,96,96)" text-rendering="geometricPrecision" image-rendering="optimizeQuality" color-rendering="optimizeQuality" stroke="rgb(96,96,96)" color-interpolation="linearRGB" stroke-width="2">
      <path fill="none" d="M20 0 L0 8 L20 16 Z" clip-path="url(#clipPath17)" />
    </g>
    <g transform="matrix(1,0,0,1,650.9049,218)" fill-opacity="0.8" fill="rgb(255,255,255)" text-rendering="geometricPrecision" image-rendering="optimizeQuality" color-rendering="optimizeQuality" stroke="rgb(255,255,255)" color-interpolation="linearRGB" stroke-opacity="0.8">
      <rect x="6" y="2" clip-path="url(#clipPath11)" width="48.1771" height="16" stroke="none" />
    </g>
    <g font-size="13.3333" transform="matrix(1,0,0,1,656.9049,233) translate(0,-13)" fill-opacity="0" fill="rgb(0,0,0)" text-rendering="geometricPrecision" image-rendering="optimizeQuality" color-rendering="optimizeQuality" font-family="&apos;Arial&apos;" stroke="rgb(0,0,0)" color-interpolation="linearRGB" stroke-opacity="0">
      <rect x="0" y="0" clip-path="url(#clipPath12)" width="48" height="16" stroke="none" />
    </g>
    <g font-size="13.3333" transform="matrix(1,0,0,1,656.9049,233) translate(0,-13)" fill="rgb(96,96,96)" text-rendering="optimizeLegibility" image-rendering="optimizeQuality" color-rendering="optimizeQuality" font-family="&apos;Arial&apos;" stroke="rgb(96,96,96)" color-interpolation="linearRGB">
      <text xml:space="preserve" x="0" y="13" clip-path="url(#clipPath12)" stroke="none">setPoint</text>
    </g>
    <g transform="matrix(1,0,0,1,517.9857,78)" fill="white" text-rendering="geometricPrecision" color-rendering="optimizeQuality" image-rendering="optimizeQuality" stroke="white" color-interpolation="linearRGB">
      <path d="M20 0 L193.0963 0 L173.0963 110 L0 110 Z" clip-path="url(#clipPath26)" stroke="none" />
    </g>
    <g stroke-linecap="butt" transform="matrix(1,0,0,1,517.9857,78)" fill="rgb(96,96,96)" text-rendering="geometricPrecision" image-rendering="optimizeQuality" color-rendering="optimizeQuality" stroke-dasharray="6,2" stroke="rgb(96,96,96)" color-interpolation="linearRGB" stroke-width="4">
      <path fill="none" d="M20 0 L193.0963 0 L173.0963 110 L0 110 Z" clip-path="url(#clipPath26)" />
    </g>
    <g transform="matrix(1,0,0,1,596.6719,81)" fill-opacity="0.8" fill="rgb(255,255,255)" text-rendering="geometricPrecision" image-rendering="optimizeQuality" color-rendering="optimizeQuality" stroke="rgb(255,255,255)" color-interpolation="linearRGB" stroke-opacity="0.8">
      <rect x="6" y="2" clip-path="url(#clipPath27)" width="23.724" height="16" stroke="none" />
    </g>
    <g font-size="13.3333" transform="matrix(1,0,0,1,602.6719,96) translate(0,-13)" fill-opacity="0" fill="rgb(0,0,0)" text-rendering="geometricPrecision" image-rendering="optimizeQuality" color-rendering="optimizeQuality" font-family="&apos;Arial&apos;" stroke="rgb(0,0,0)" color-interpolation="linearRGB" stroke-opacity="0">
      <rect x="0" y="0" clip-path="url(#clipPath28)" width="23" height="16" stroke="none" />
    </g>
    <g font-size="13.3333" transform="matrix(1,0,0,1,602.6719,96) translate(0,-13)" fill="rgb(96,96,96)" text-rendering="optimizeLegibility" image-rendering="optimizeQuality" color-rendering="optimizeQuality" font-family="&apos;Arial&apos;" stroke="rgb(96,96,96)" color-interpolation="linearRGB">
      <text xml:space="preserve" x="0" y="13" clip-path="url(#clipPath28)" stroke="none">fan*</text>
    </g>
    <g text-rendering="geometricPrecision" transform="matrix(-1,0,0,-1,711.082,178)" color-interpolation="linearRGB" color-rendering="optimizeQuality" image-rendering="optimizeQuality">
      <path d="M20 0 L0 8 L20 16 Z" clip-path="url(#clipPath17)" stroke="none" />
    </g>
    <g stroke-linecap="butt" transform="matrix(-1,0,0,-1,711.082,178)" fill="rgb(96,96,96)" text-rendering="geometricPrecision" image-rendering="optimizeQuality" color-rendering="optimizeQuality" stroke="rgb(96,96,96)" color-interpolation="linearRGB" stroke-width="2">
      <path fill="none" d="M20 0 L0 8 L20 16 Z" clip-path="url(#clipPath17)" />
    </g>
    <g transform="matrix(1,0,0,1,658.3203,138)" fill-opacity="0.8" fill="rgb(255,255,255)" text-rendering="geometricPrecision" image-rendering="optimizeQuality" color-rendering="optimizeQuality" stroke="rgb(255,255,255)" color-interpolation="linearRGB" stroke-opacity="0.8">
      <rect x="6" y="2" clip-path="url(#clipPath13)" width="40.7617" height="16" stroke="none" />
    </g>
    <g font-size="13.3333" transform="matrix(1,0,0,1,664.3203,153) translate(0,-13)" fill-opacity="0" fill="rgb(0,0,0)" text-rendering="geometricPrecision" image-rendering="optimizeQuality" color-rendering="optimizeQuality" font-family="&apos;Arial&apos;" stroke="rgb(0,0,0)" color-interpolation="linearRGB" stroke-opacity="0">
      <rect x="0" y="0" clip-path="url(#clipPath14)" width="40" height="16" stroke="none" />
    </g>
    <g font-size="13.3333" transform="matrix(1,0,0,1,664.3203,153) translate(0,-13)" fill="rgb(96,96,96)" text-rendering="optimizeLegibility" image-rendering="optimizeQuality" color-rendering="optimizeQuality" font-family="&apos;Arial&apos;" stroke="rgb(96,96,96)" color-interpolation="linearRGB">
      <text xml:space="preserve" x="0" y="13" clip-path="url(#clipPath14)" stroke="none">fanAck</text>
    </g>
    <g text-rendering="geometricPrecision" transform="matrix(-1,0,0,-1,711.082,128)" color-interpolation="linearRGB" color-rendering="optimizeQuality" image-rendering="optimizeQuality">
      <path d="M0 0 L20 8 L0 16 Z" clip-path="url(#clipPath10)" stroke="none" />
    </g>
    <g stroke-linecap="butt" transform="matrix(-1,0,0,-1,711.082,128)" fill="rgb(96,96,96)" text-rendering="geometricPrecision" image-rendering="optimizeQuality" color-rendering="optimizeQuality" stroke="rgb(96,96,96)" color-interpolation="linearRGB" stroke-width="2">
      <path fill="none" d="M0 0 L20 8 L0 16 Z" clip-path="url(#clipPath10)" />
    </g>
    <g transform="matrix(1,0,0,1,652.3958,88)" fill-opacity="0.8" fill="rgb(255,255,255)" text-rendering="geometricPrecision" image-rendering="optimizeQuality" color-rendering="optimizeQuality" stroke="rgb(255,255,255)" color-interpolation="linearRGB" stroke-opacity="0.8">
      <rect x="6" y="2" clip-path="url(#clipPath18)" width="46.6862" height="16" stroke="none" />
    </g>
    <g font-size="13.3333" transform="matrix(1,0,0,1,658.3958,103) translate(0,-13)" fill-opacity="0" fill="rgb(0,0,0)" text-rendering="geometricPrecision" image-rendering="optimizeQuality" color-rendering="optimizeQuality" font-family="&apos;Arial&apos;" stroke="rgb(0,0,0)" color-interpolation="linearRGB" stroke-opacity="0">
      <rect x="0" y="0" clip-path="url(#clipPath29)" width="46" height="16" stroke="none" />
    </g>
    <g font-size="13.3333" transform="matrix(1,0,0,1,658.3958,103) translate(0,-13)" fill="rgb(96,96,96)" text-rendering="optimizeLegibility" image-rendering="optimizeQuality" color-rendering="optimizeQuality" font-family="&apos;Arial&apos;" stroke="rgb(96,96,96)" color-interpolation="linearRGB">
      <text xml:space="preserve" x="0" y="13" clip-path="url(#clipPath29)" stroke="none">fanCmd</text>
    </g>
    <g transform="matrix(1,0,0,1,26,195.5)" fill="white" text-rendering="geometricPrecision" color-rendering="optimizeQuality" image-rendering="optimizeQuality" stroke="white" color-interpolation="linearRGB">
      <path d="M20 0 L331.1914 0 L311.1914 85 L0 85 Z" clip-path="url(#clipPath30)" stroke="none" />
    </g>
    <g stroke-linecap="butt" transform="matrix(1,0,0,1,26,195.5)" fill="rgb(96,96,96)" text-rendering="geometricPrecision" image-rendering="optimizeQuality" color-rendering="optimizeQuality" stroke-dasharray="6,2" stroke="rgb(96,96,96)" color-interpolation="linearRGB" stroke-width="4">
      <path fill="none" d="M20 0 L331.1914 0 L311.1914 85 L0 85 Z" clip-path="url(#clipPath30)" />
    </g>
    <g transform="matrix(1,0,0,1,147.0573,198.5)" fill-opacity="0.8" fill="rgb(255,255,255)" text-rendering="geometricPrecision" image-rendering="optimizeQuality" color-rendering="optimizeQuality" stroke="rgb(255,255,255)" color-interpolation="linearRGB" stroke-opacity="0.8">
      <rect x="6" y="2" clip-path="url(#clipPath31)" width="77.0768" height="16" stroke="none" />
    </g>
    <g font-size="13.3333" transform="matrix(1,0,0,1,153.0573,213.5) translate(0,-13)" fill-opacity="0" fill="rgb(0,0,0)" text-rendering="geometricPrecision" image-rendering="optimizeQuality" color-rendering="optimizeQuality" font-family="&apos;Arial&apos;" stroke="rgb(0,0,0)" color-interpolation="linearRGB" stroke-opacity="0">
      <rect x="0" y="0" clip-path="url(#clipPath9)" width="77" height="16" stroke="none" />
    </g>
    <g font-size="13.3333" transform="matrix(1,0,0,1,153.0573,213.5) translate(0,-13)" fill="rgb(96,96,96)" text-rendering="optimizeLegibility" image-rendering="optimizeQuality" color-rendering="optimizeQuality" font-family="&apos;Arial&apos;" stroke="rgb(96,96,96)" color-interpolation="linearRGB">
      <text xml:space="preserve" x="0" y="13" clip-path="url(#clipPath9)" stroke="none">tempSensor*</text>
    </g>
    <g text-rendering="geometricPrecision" transform="matrix(-1,0,0,-1,357.1914,258)" color-interpolation="linearRGB" color-rendering="optimizeQuality" image-rendering="optimizeQuality">
      <path d="M20 0 L0 8 L20 16 Z" clip-path="url(#clipPath17)" stroke="none" />
    </g>
    <g stroke-linecap="butt" transform="matrix(-1,0,0,-1,357.1914,258)" fill="rgb(96,96,96)" text-rendering="geometricPrecision" image-rendering="optimizeQuality" color-rendering="optimizeQuality" stroke="rgb(96,96,96)" color-interpolation="linearRGB" stroke-width="2">
      <path fill="none" d="M20 0 L0 8 L20 16 Z" clip-path="url(#clipPath17)" />
    </g>
    <g transform="matrix(1,0,0,1,269.612,218)" fill-opacity="0.8" fill="rgb(255,255,255)" text-rendering="geometricPrecision" image-rendering="optimizeQuality" color-rendering="optimizeQuality" stroke="rgb(255,255,255)" color-interpolation="linearRGB" stroke-opacity="0.8">
      <rect x="6" y="2" clip-path="url(#clipPath15)" width="75.5794" height="16" stroke="none" />
    </g>
    <g font-size="13.3333" transform="matrix(1,0,0,1,275.612,233) translate(0,-13)" fill-opacity="0" fill="rgb(0,0,0)" text-rendering="geometricPrecision" image-rendering="optimizeQuality" color-rendering="optimizeQuality" font-family="&apos;Arial&apos;" stroke="rgb(0,0,0)" color-interpolation="linearRGB" stroke-opacity="0">
      <rect x="0" y="0" clip-path="url(#clipPath16)" width="75" height="16" stroke="none" />
    </g>
    <g font-size="13.3333" transform="matrix(1,0,0,1,275.612,233) translate(0,-13)" fill="rgb(96,96,96)" text-rendering="optimizeLegibility" image-rendering="optimizeQuality" color-rendering="optimizeQuality" font-family="&apos;Arial&apos;" stroke="rgb(96,96,96)" color-interpolation="linearRGB">
      <text xml:space="preserve" x="0" y="13" clip-path="url(#clipPath16)" stroke="none">currentTemp</text>
    </g>
    <g transform="matrix(1,0,0,1,125.5794,233.5)" fill="white" text-rendering="geometricPrecision" color-rendering="optimizeQuality" image-rendering="optimizeQuality" stroke="white" color-interpolation="linearRGB">
      <path d="M0 35 L0 9 L6 0 L39 0 L45 9 L132.0326 9 L132.0326 35 Z" clip-path="url(#clipPath20)" stroke="none" />
    </g>
    <g stroke-linecap="butt" transform="matrix(1,0,0,1,125.5794,233.5)" text-rendering="geometricPrecision" color-rendering="optimizeQuality" image-rendering="optimizeQuality" color-interpolation="linearRGB" stroke-width="2">
      <path fill="none" d="M0 35 L0 9 L6 0 L39 0 L45 9 L132.0326 9 L132.0326 35 Z" clip-path="url(#clipPath20)" />
    </g>
    <g transform="matrix(1,0,0,1,145.5794,240.5)" fill-opacity="0.8" fill="rgb(255,255,255)" text-rendering="geometricPrecision" image-rendering="optimizeQuality" color-rendering="optimizeQuality" stroke="rgb(255,255,255)" color-interpolation="linearRGB" stroke-opacity="0.8">
      <rect x="6" y="2" clip-path="url(#clipPath21)" width="80.0326" height="16" stroke="none" />
    </g>
    <g font-size="13.3333" transform="matrix(1,0,0,1,151.5794,255.5) translate(0,-13)" fill-opacity="0" fill="rgb(0,0,0)" text-rendering="geometricPrecision" image-rendering="optimizeQuality" color-rendering="optimizeQuality" font-family="&apos;Arial&apos;" stroke="rgb(0,0,0)" color-interpolation="linearRGB" stroke-opacity="0">
      <rect x="0" y="0" clip-path="url(#clipPath32)" width="80" height="16" stroke="none" />
    </g>
    <g font-size="13.3333" transform="matrix(1,0,0,1,151.5794,255.5) translate(0,-13)" text-rendering="optimizeLegibility" image-rendering="optimizeQuality" color-rendering="optimizeQuality" font-family="&apos;Arial&apos;" color-interpolation="linearRGB">
      <text xml:space="preserve" x="0" y="13" clip-path="url(#clipPath32)" stroke="none">{**GUMBO**}</text>
    </g>
    <g stroke-linecap="butt" transform="matrix(1,0,0,1,355.6914,249.5)" fill="rgb(96,96,96)" text-rendering="geometricPrecision" color-rendering="optimizeQuality" image-rendering="optimizeQuality" stroke="rgb(96,96,96)" color-interpolation="linearRGB">
      <path fill="none" d="M0.5 0.5 L22.5 0.5" />
    </g>
    <g stroke-linecap="butt" transform="matrix(1,0,0,1,709.582,119.5)" fill="rgb(96,96,96)" text-rendering="geometricPrecision" color-rendering="optimizeQuality" image-rendering="optimizeQuality" stroke="rgb(96,96,96)" color-interpolation="linearRGB">
      <path fill="none" d="M32.5 0.5 L0.5 0.5" />
    </g>
    <g stroke-linecap="butt" transform="matrix(1,0,0,1,355.6914,239.5)" fill="rgb(96,96,96)" text-rendering="geometricPrecision" color-rendering="optimizeQuality" image-rendering="optimizeQuality" stroke="rgb(96,96,96)" color-interpolation="linearRGB">
      <path fill="none" d="M0.5 10.5 L11.5 10.5 L11.5 38.5 L375.3906 38.5 L375.3906 0.5 L386.3906 15.5" />
    </g>
    <g stroke-linecap="butt" transform="matrix(1,0,0,1,709.582,159.5)" fill="rgb(96,96,96)" text-rendering="geometricPrecision" color-rendering="optimizeQuality" image-rendering="optimizeQuality" stroke="rgb(96,96,96)" color-interpolation="linearRGB">
      <path fill="none" d="M0.5 10.5 L11.5 10.5 L11.5 0.5 L32.5 5.5" />
    </g>
    <g stroke-linecap="butt" transform="matrix(1,0,0,1,709.582,199.5)" fill="rgb(96,96,96)" text-rendering="geometricPrecision" color-rendering="optimizeQuality" image-rendering="optimizeQuality" stroke="rgb(96,96,96)" color-interpolation="linearRGB">
      <path fill="none" d="M0.5 50.5 L11.5 50.5 L11.5 0.5 L32.5 10.5" />
    </g>
  </g>
</svg>
